solid ascii
  facet normal 8.660254e-001 5.000000e-001 -2.450147e-015
    outer loop
      vertex   -2.858627e+001 6.495540e+001 2.220446e-015
      vertex   -2.858627e+001 6.495540e+001 2.900000e+000
      vertex   -2.699855e+001 6.220540e+001 2.220446e-015
    endloop
  endfacet
  facet normal 8.660254e-001 5.000000e-001 4.243780e-015
    outer loop
      vertex   -2.699855e+001 6.220540e+001 2.220446e-015
      vertex   -2.858627e+001 6.495540e+001 2.900000e+000
      vertex   -2.699855e+001 6.220540e+001 2.900000e+000
    endloop
  endfacet
  facet normal -0.000000e+000 1.000000e+000 -0.000000e+000
    outer loop
      vertex   -2.699855e+001 6.220540e+001 2.220446e-015
      vertex   -2.699855e+001 6.220540e+001 2.900000e+000
      vertex   -2.382313e+001 6.220540e+001 2.220446e-015
    endloop
  endfacet
  facet normal 0.000000e+000 1.000000e+000 -0.000000e+000
    outer loop
      vertex   -2.382313e+001 6.220540e+001 2.220446e-015
      vertex   -2.699855e+001 6.220540e+001 2.900000e+000
      vertex   -2.382313e+001 6.220540e+001 2.900000e+000
    endloop
  endfacet
  facet normal -8.660254e-001 5.000000e-001 2.121890e-015
    outer loop
      vertex   -2.382313e+001 6.220540e+001 2.220446e-015
      vertex   -2.382313e+001 6.220540e+001 2.900000e+000
      vertex   -2.223542e+001 6.495540e+001 2.220446e-015
    endloop
  endfacet
  facet normal -8.660254e-001 5.000000e-001 0.000000e+000
    outer loop
      vertex   -2.223542e+001 6.495540e+001 2.220446e-015
      vertex   -2.382313e+001 6.220540e+001 2.900000e+000
      vertex   -2.223542e+001 6.495540e+001 2.900000e+000
    endloop
  endfacet
  facet normal 8.660254e-001 -5.000000e-001 -6.365670e-015
    outer loop
      vertex   -2.699855e+001 6.770540e+001 2.220446e-015
      vertex   -2.699855e+001 6.770540e+001 2.900000e+000
      vertex   -2.858627e+001 6.495540e+001 2.220446e-015
    endloop
  endfacet
  facet normal 8.660254e-001 -5.000000e-001 2.411238e-015
    outer loop
      vertex   -2.858627e+001 6.495540e+001 2.220446e-015
      vertex   -2.699855e+001 6.770540e+001 2.900000e+000
      vertex   -2.858627e+001 6.495540e+001 2.900000e+000
    endloop
  endfacet
  facet normal 0.000000e+000 0.000000e+000 -1.000000e+000
    outer loop
      vertex   -2.739989e+001 6.516446e+001 2.900000e+000
      vertex   -2.741084e+001 6.495540e+001 2.900000e+000
      vertex   -2.858627e+001 6.495540e+001 2.900000e+000
    endloop
  endfacet
  facet normal -0.000000e+000 0.000000e+000 -1.000000e+000
    outer loop
      vertex   -2.736714e+001 6.537122e+001 2.900000e+000
      vertex   -2.858627e+001 6.495540e+001 2.900000e+000
      vertex   -2.731295e+001 6.557343e+001 2.900000e+000
    endloop
  endfacet
  facet normal 0.000000e+000 0.000000e+000 -1.000000e+000
    outer loop
      vertex   -2.736714e+001 6.537122e+001 2.900000e+000
      vertex   -2.739989e+001 6.516446e+001 2.900000e+000
      vertex   -2.858627e+001 6.495540e+001 2.900000e+000
    endloop
  endfacet
  facet normal -0.000000e+000 -0.000000e+000 -1.000000e+000
    outer loop
      vertex   -2.741084e+001 6.495540e+001 2.900000e+000
      vertex   -2.739989e+001 6.474634e+001 2.900000e+000
      vertex   -2.858627e+001 6.495540e+001 2.900000e+000
    endloop
  endfacet
  facet normal 0.000000e+000 0.000000e+000 -1.000000e+000
    outer loop
      vertex   -2.858627e+001 6.495540e+001 2.900000e+000
      vertex   -2.739989e+001 6.474634e+001 2.900000e+000
      vertex   -2.736714e+001 6.453958e+001 2.900000e+000
    endloop
  endfacet
  facet normal 0.000000e+000 0.000000e+000 -1.000000e+000
    outer loop
      vertex   -2.731295e+001 6.433736e+001 2.900000e+000
      vertex   -2.858627e+001 6.495540e+001 2.900000e+000
      vertex   -2.736714e+001 6.453958e+001 2.900000e+000
    endloop
  endfacet
  facet normal -0.000000e+000 -0.000000e+000 -1.000000e+000
    outer loop
      vertex   -2.731295e+001 6.433736e+001 2.900000e+000
      vertex   -2.723793e+001 6.414193e+001 2.900000e+000
      vertex   -2.858627e+001 6.495540e+001 2.900000e+000
    endloop
  endfacet
  facet normal 0.000000e+000 0.000000e+000 -1.000000e+000
    outer loop
      vertex   -2.858627e+001 6.495540e+001 2.900000e+000
      vertex   -2.723793e+001 6.414193e+001 2.900000e+000
      vertex   -2.714289e+001 6.395540e+001 2.900000e+000
    endloop
  endfacet
  facet normal 0.000000e+000 0.000000e+000 -1.000000e+000
    outer loop
      vertex   -2.699855e+001 6.220540e+001 2.900000e+000
      vertex   -2.714289e+001 6.395540e+001 2.900000e+000
      vertex   -2.702888e+001 6.377983e+001 2.900000e+000
    endloop
  endfacet
  facet normal -0.000000e+000 0.000000e+000 -1.000000e+000
    outer loop
      vertex   -2.689713e+001 6.361714e+001 2.900000e+000
      vertex   -2.699855e+001 6.220540e+001 2.900000e+000
      vertex   -2.702888e+001 6.377983e+001 2.900000e+000
    endloop
  endfacet
  facet normal 0.000000e+000 -0.000000e+000 -1.000000e+000
    outer loop
      vertex   -2.689713e+001 6.361714e+001 2.900000e+000
      vertex   -2.674910e+001 6.346911e+001 2.900000e+000
      vertex   -2.699855e+001 6.220540e+001 2.900000e+000
    endloop
  endfacet
  facet normal 0.000000e+000 0.000000e+000 -1.000000e+000
    outer loop
      vertex   -2.699855e+001 6.220540e+001 2.900000e+000
      vertex   -2.674910e+001 6.346911e+001 2.900000e+000
      vertex   -2.658641e+001 6.333736e+001 2.900000e+000
    endloop
  endfacet
  facet normal -0.000000e+000 0.000000e+000 -1.000000e+000
    outer loop
      vertex   -2.641084e+001 6.322335e+001 2.900000e+000
      vertex   -2.699855e+001 6.220540e+001 2.900000e+000
      vertex   -2.658641e+001 6.333736e+001 2.900000e+000
    endloop
  endfacet
  facet normal 0.000000e+000 -0.000000e+000 -1.000000e+000
    outer loop
      vertex   -2.641084e+001 6.322335e+001 2.900000e+000
      vertex   -2.622431e+001 6.312831e+001 2.900000e+000
      vertex   -2.699855e+001 6.220540e+001 2.900000e+000
    endloop
  endfacet
  facet normal 0.000000e+000 0.000000e+000 -1.000000e+000
    outer loop
      vertex   -2.699855e+001 6.220540e+001 2.900000e+000
      vertex   -2.622431e+001 6.312831e+001 2.900000e+000
      vertex   -2.602888e+001 6.305329e+001 2.900000e+000
    endloop
  endfacet
  facet normal -0.000000e+000 0.000000e+000 -1.000000e+000
    outer loop
      vertex   -2.582666e+001 6.299910e+001 2.900000e+000
      vertex   -2.699855e+001 6.220540e+001 2.900000e+000
      vertex   -2.602888e+001 6.305329e+001 2.900000e+000
    endloop
  endfacet
  facet normal 0.000000e+000 -0.000000e+000 -1.000000e+000
    outer loop
      vertex   -2.582666e+001 6.299910e+001 2.900000e+000
      vertex   -2.561990e+001 6.296635e+001 2.900000e+000
      vertex   -2.699855e+001 6.220540e+001 2.900000e+000
    endloop
  endfacet
  facet normal 0.000000e+000 0.000000e+000 -1.000000e+000
    outer loop
      vertex   -2.699855e+001 6.220540e+001 2.900000e+000
      vertex   -2.561990e+001 6.296635e+001 2.900000e+000
      vertex   -2.541084e+001 6.295540e+001 2.900000e+000
    endloop
  endfacet
  facet normal 0.000000e+000 0.000000e+000 -1.000000e+000
    outer loop
      vertex   -2.382313e+001 6.220540e+001 2.900000e+000
      vertex   -2.541084e+001 6.295540e+001 2.900000e+000
      vertex   -2.520178e+001 6.296635e+001 2.900000e+000
    endloop
  endfacet
  facet normal -0.000000e+000 -0.000000e+000 -1.000000e+000
    outer loop
      vertex   -2.499502e+001 6.299910e+001 2.900000e+000
      vertex   -2.382313e+001 6.220540e+001 2.900000e+000
      vertex   -2.520178e+001 6.296635e+001 2.900000e+000
    endloop
  endfacet
  facet normal 0.000000e+000 0.000000e+000 -1.000000e+000
    outer loop
      vertex   -2.499502e+001 6.299910e+001 2.900000e+000
      vertex   -2.479281e+001 6.305329e+001 2.900000e+000
      vertex   -2.382313e+001 6.220540e+001 2.900000e+000
    endloop
  endfacet
  facet normal 0.000000e+000 0.000000e+000 -1.000000e+000
    outer loop
      vertex   -2.382313e+001 6.220540e+001 2.900000e+000
      vertex   -2.479281e+001 6.305329e+001 2.900000e+000
      vertex   -2.459737e+001 6.312831e+001 2.900000e+000
    endloop
  endfacet
  facet normal -0.000000e+000 -0.000000e+000 -1.000000e+000
    outer loop
      vertex   -2.441084e+001 6.322335e+001 2.900000e+000
      vertex   -2.382313e+001 6.220540e+001 2.900000e+000
      vertex   -2.459737e+001 6.312831e+001 2.900000e+000
    endloop
  endfacet
  facet normal 0.000000e+000 0.000000e+000 -1.000000e+000
    outer loop
      vertex   -2.441084e+001 6.322335e+001 2.900000e+000
      vertex   -2.423527e+001 6.333736e+001 2.900000e+000
      vertex   -2.382313e+001 6.220540e+001 2.900000e+000
    endloop
  endfacet
  facet normal 0.000000e+000 0.000000e+000 -1.000000e+000
    outer loop
      vertex   -2.382313e+001 6.220540e+001 2.900000e+000
      vertex   -2.423527e+001 6.333736e+001 2.900000e+000
      vertex   -2.407258e+001 6.346911e+001 2.900000e+000
    endloop
  endfacet
  facet normal -0.000000e+000 -0.000000e+000 -1.000000e+000
    outer loop
      vertex   -2.392455e+001 6.361714e+001 2.900000e+000
      vertex   -2.382313e+001 6.220540e+001 2.900000e+000
      vertex   -2.407258e+001 6.346911e+001 2.900000e+000
    endloop
  endfacet
  facet normal 0.000000e+000 -0.000000e+000 -1.000000e+000
    outer loop
      vertex   -2.392455e+001 6.361714e+001 2.900000e+000
      vertex   -2.379281e+001 6.377983e+001 2.900000e+000
      vertex   -2.382313e+001 6.220540e+001 2.900000e+000
    endloop
  endfacet
  facet normal 0.000000e+000 0.000000e+000 -1.000000e+000
    outer loop
      vertex   -2.382313e+001 6.220540e+001 2.900000e+000
      vertex   -2.379281e+001 6.377983e+001 2.900000e+000
      vertex   -2.367879e+001 6.395540e+001 2.900000e+000
    endloop
  endfacet
  facet normal -0.000000e+000 0.000000e+000 -1.000000e+000
    outer loop
      vertex   -2.223542e+001 6.495540e+001 2.900000e+000
      vertex   -2.367879e+001 6.395540e+001 2.900000e+000
      vertex   -2.358375e+001 6.414193e+001 2.900000e+000
    endloop
  endfacet
  facet normal 0.000000e+000 -0.000000e+000 -1.000000e+000
    outer loop
      vertex   -2.350873e+001 6.433736e+001 2.900000e+000
      vertex   -2.223542e+001 6.495540e+001 2.900000e+000
      vertex   -2.358375e+001 6.414193e+001 2.900000e+000
    endloop
  endfacet
  facet normal 0.000000e+000 0.000000e+000 -1.000000e+000
    outer loop
      vertex   -2.350873e+001 6.433736e+001 2.900000e+000
      vertex   -2.345455e+001 6.453958e+001 2.900000e+000
      vertex   -2.223542e+001 6.495540e+001 2.900000e+000
    endloop
  endfacet
  facet normal -0.000000e+000 0.000000e+000 -1.000000e+000
    outer loop
      vertex   -2.223542e+001 6.495540e+001 2.900000e+000
      vertex   -2.345455e+001 6.453958e+001 2.900000e+000
      vertex   -2.342180e+001 6.474634e+001 2.900000e+000
    endloop
  endfacet
  facet normal 0.000000e+000 -0.000000e+000 -1.000000e+000
    outer loop
      vertex   -2.341084e+001 6.495540e+001 2.900000e+000
      vertex   -2.223542e+001 6.495540e+001 2.900000e+000
      vertex   -2.342180e+001 6.474634e+001 2.900000e+000
    endloop
  endfacet
  facet normal 0.000000e+000 0.000000e+000 -1.000000e+000
    outer loop
      vertex   -2.341084e+001 6.495540e+001 2.900000e+000
      vertex   -2.342180e+001 6.516446e+001 2.900000e+000
      vertex   -2.223542e+001 6.495540e+001 2.900000e+000
    endloop
  endfacet
  facet normal 0.000000e+000 0.000000e+000 -1.000000e+000
    outer loop
      vertex   -2.223542e+001 6.495540e+001 2.900000e+000
      vertex   -2.342180e+001 6.516446e+001 2.900000e+000
      vertex   -2.345455e+001 6.537122e+001 2.900000e+000
    endloop
  endfacet
  facet normal -0.000000e+000 -0.000000e+000 -1.000000e+000
    outer loop
      vertex   -2.350873e+001 6.557343e+001 2.900000e+000
      vertex   -2.223542e+001 6.495540e+001 2.900000e+000
      vertex   -2.345455e+001 6.537122e+001 2.900000e+000
    endloop
  endfacet
  facet normal 0.000000e+000 0.000000e+000 -1.000000e+000
    outer loop
      vertex   -2.350873e+001 6.557343e+001 2.900000e+000
      vertex   -2.358375e+001 6.576887e+001 2.900000e+000
      vertex   -2.223542e+001 6.495540e+001 2.900000e+000
    endloop
  endfacet
  facet normal 0.000000e+000 0.000000e+000 -1.000000e+000
    outer loop
      vertex   -2.223542e+001 6.495540e+001 2.900000e+000
      vertex   -2.358375e+001 6.576887e+001 2.900000e+000
      vertex   -2.367879e+001 6.595540e+001 2.900000e+000
    endloop
  endfacet
  facet normal -0.000000e+000 -0.000000e+000 -1.000000e+000
    outer loop
      vertex   -2.382313e+001 6.770540e+001 2.900000e+000
      vertex   -2.367879e+001 6.595540e+001 2.900000e+000
      vertex   -2.379281e+001 6.613097e+001 2.900000e+000
    endloop
  endfacet
  facet normal 0.000000e+000 0.000000e+000 -1.000000e+000
    outer loop
      vertex   -2.392455e+001 6.629366e+001 2.900000e+000
      vertex   -2.382313e+001 6.770540e+001 2.900000e+000
      vertex   -2.379281e+001 6.613097e+001 2.900000e+000
    endloop
  endfacet
  facet normal 0.000000e+000 0.000000e+000 -1.000000e+000
    outer loop
      vertex   -2.392455e+001 6.629366e+001 2.900000e+000
      vertex   -2.407258e+001 6.644169e+001 2.900000e+000
      vertex   -2.382313e+001 6.770540e+001 2.900000e+000
    endloop
  endfacet
  facet normal -0.000000e+000 0.000000e+000 -1.000000e+000
    outer loop
      vertex   -2.382313e+001 6.770540e+001 2.900000e+000
      vertex   -2.407258e+001 6.644169e+001 2.900000e+000
      vertex   -2.423527e+001 6.657343e+001 2.900000e+000
    endloop
  endfacet
  facet normal 0.000000e+000 -0.000000e+000 -1.000000e+000
    outer loop
      vertex   -2.441084e+001 6.668745e+001 2.900000e+000
      vertex   -2.382313e+001 6.770540e+001 2.900000e+000
      vertex   -2.423527e+001 6.657343e+001 2.900000e+000
    endloop
  endfacet
  facet normal 0.000000e+000 0.000000e+000 -1.000000e+000
    outer loop
      vertex   -2.441084e+001 6.668745e+001 2.900000e+000
      vertex   -2.459737e+001 6.678249e+001 2.900000e+000
      vertex   -2.382313e+001 6.770540e+001 2.900000e+000
    endloop
  endfacet
  facet normal -0.000000e+000 0.000000e+000 -1.000000e+000
    outer loop
      vertex   -2.382313e+001 6.770540e+001 2.900000e+000
      vertex   -2.459737e+001 6.678249e+001 2.900000e+000
      vertex   -2.479281e+001 6.685751e+001 2.900000e+000
    endloop
  endfacet
  facet normal 0.000000e+000 -0.000000e+000 -1.000000e+000
    outer loop
      vertex   -2.499502e+001 6.691169e+001 2.900000e+000
      vertex   -2.382313e+001 6.770540e+001 2.900000e+000
      vertex   -2.479281e+001 6.685751e+001 2.900000e+000
    endloop
  endfacet
  facet normal 0.000000e+000 0.000000e+000 -1.000000e+000
    outer loop
      vertex   -2.499502e+001 6.691169e+001 2.900000e+000
      vertex   -2.520178e+001 6.694444e+001 2.900000e+000
      vertex   -2.382313e+001 6.770540e+001 2.900000e+000
    endloop
  endfacet
  facet normal -0.000000e+000 0.000000e+000 -1.000000e+000
    outer loop
      vertex   -2.382313e+001 6.770540e+001 2.900000e+000
      vertex   -2.520178e+001 6.694444e+001 2.900000e+000
      vertex   -2.541084e+001 6.695540e+001 2.900000e+000
    endloop
  endfacet
  facet normal 0.000000e+000 -0.000000e+000 -1.000000e+000
    outer loop
      vertex   -2.699855e+001 6.770540e+001 2.900000e+000
      vertex   -2.541084e+001 6.695540e+001 2.900000e+000
      vertex   -2.561990e+001 6.694444e+001 2.900000e+000
    endloop
  endfacet
  facet normal 0.000000e+000 0.000000e+000 -1.000000e+000
    outer loop
      vertex   -2.582666e+001 6.691169e+001 2.900000e+000
      vertex   -2.699855e+001 6.770540e+001 2.900000e+000
      vertex   -2.561990e+001 6.694444e+001 2.900000e+000
    endloop
  endfacet
  facet normal -0.000000e+000 0.000000e+000 -1.000000e+000
    outer loop
      vertex   -2.582666e+001 6.691169e+001 2.900000e+000
      vertex   -2.602888e+001 6.685751e+001 2.900000e+000
      vertex   -2.699855e+001 6.770540e+001 2.900000e+000
    endloop
  endfacet
  facet normal 0.000000e+000 -0.000000e+000 -1.000000e+000
    outer loop
      vertex   -2.699855e+001 6.770540e+001 2.900000e+000
      vertex   -2.602888e+001 6.685751e+001 2.900000e+000
      vertex   -2.622431e+001 6.678249e+001 2.900000e+000
    endloop
  endfacet
  facet normal 0.000000e+000 0.000000e+000 -1.000000e+000
    outer loop
      vertex   -2.641084e+001 6.668745e+001 2.900000e+000
      vertex   -2.699855e+001 6.770540e+001 2.900000e+000
      vertex   -2.622431e+001 6.678249e+001 2.900000e+000
    endloop
  endfacet
  facet normal -0.000000e+000 0.000000e+000 -1.000000e+000
    outer loop
      vertex   -2.641084e+001 6.668745e+001 2.900000e+000
      vertex   -2.658641e+001 6.657343e+001 2.900000e+000
      vertex   -2.699855e+001 6.770540e+001 2.900000e+000
    endloop
  endfacet
  facet normal 0.000000e+000 -0.000000e+000 -1.000000e+000
    outer loop
      vertex   -2.699855e+001 6.770540e+001 2.900000e+000
      vertex   -2.658641e+001 6.657343e+001 2.900000e+000
      vertex   -2.674910e+001 6.644169e+001 2.900000e+000
    endloop
  endfacet
  facet normal 0.000000e+000 0.000000e+000 -1.000000e+000
    outer loop
      vertex   -2.689713e+001 6.629366e+001 2.900000e+000
      vertex   -2.699855e+001 6.770540e+001 2.900000e+000
      vertex   -2.674910e+001 6.644169e+001 2.900000e+000
    endloop
  endfacet
  facet normal -0.000000e+000 0.000000e+000 -1.000000e+000
    outer loop
      vertex   -2.689713e+001 6.629366e+001 2.900000e+000
      vertex   -2.702888e+001 6.613097e+001 2.900000e+000
      vertex   -2.699855e+001 6.770540e+001 2.900000e+000
    endloop
  endfacet
  facet normal 0.000000e+000 0.000000e+000 -1.000000e+000
    outer loop
      vertex   -2.699855e+001 6.770540e+001 2.900000e+000
      vertex   -2.702888e+001 6.613097e+001 2.900000e+000
      vertex   -2.714289e+001 6.595540e+001 2.900000e+000
    endloop
  endfacet
  facet normal 0.000000e+000 -0.000000e+000 -1.000000e+000
    outer loop
      vertex   -2.858627e+001 6.495540e+001 2.900000e+000
      vertex   -2.714289e+001 6.595540e+001 2.900000e+000
      vertex   -2.723793e+001 6.576887e+001 2.900000e+000
    endloop
  endfacet
  facet normal -0.000000e+000 0.000000e+000 -1.000000e+000
    outer loop
      vertex   -2.731295e+001 6.557343e+001 2.900000e+000
      vertex   -2.858627e+001 6.495540e+001 2.900000e+000
      vertex   -2.723793e+001 6.576887e+001 2.900000e+000
    endloop
  endfacet
  facet normal 0.000000e+000 0.000000e+000 -1.000000e+000
    outer loop
      vertex   -2.858627e+001 6.495540e+001 2.900000e+000
      vertex   -2.714289e+001 6.395540e+001 2.900000e+000
      vertex   -2.699855e+001 6.220540e+001 2.900000e+000
    endloop
  endfacet
  facet normal 0.000000e+000 0.000000e+000 -1.000000e+000
    outer loop
      vertex   -2.699855e+001 6.220540e+001 2.900000e+000
      vertex   -2.541084e+001 6.295540e+001 2.900000e+000
      vertex   -2.382313e+001 6.220540e+001 2.900000e+000
    endloop
  endfacet
  facet normal 0.000000e+000 0.000000e+000 -1.000000e+000
    outer loop
      vertex   -2.382313e+001 6.220540e+001 2.900000e+000
      vertex   -2.367879e+001 6.395540e+001 2.900000e+000
      vertex   -2.223542e+001 6.495540e+001 2.900000e+000
    endloop
  endfacet
  facet normal 0.000000e+000 0.000000e+000 -1.000000e+000
    outer loop
      vertex   -2.223542e+001 6.495540e+001 2.900000e+000
      vertex   -2.367879e+001 6.595540e+001 2.900000e+000
      vertex   -2.382313e+001 6.770540e+001 2.900000e+000
    endloop
  endfacet
  facet normal -0.000000e+000 0.000000e+000 -1.000000e+000
    outer loop
      vertex   -2.382313e+001 6.770540e+001 2.900000e+000
      vertex   -2.541084e+001 6.695540e+001 2.900000e+000
      vertex   -2.699855e+001 6.770540e+001 2.900000e+000
    endloop
  endfacet
  facet normal 0.000000e+000 0.000000e+000 -1.000000e+000
    outer loop
      vertex   -2.699855e+001 6.770540e+001 2.900000e+000
      vertex   -2.714289e+001 6.595540e+001 2.900000e+000
      vertex   -2.858627e+001 6.495540e+001 2.900000e+000
    endloop
  endfacet
  facet normal -8.660254e-001 -5.000000e-001 0.000000e+000
    outer loop
      vertex   -2.223542e+001 6.495540e+001 2.220446e-015
      vertex   -2.223542e+001 6.495540e+001 2.900000e+000
      vertex   -2.382313e+001 6.770540e+001 2.220446e-015
    endloop
  endfacet
  facet normal -8.660254e-001 -5.000000e-001 0.000000e+000
    outer loop
      vertex   -2.382313e+001 6.770540e+001 2.220446e-015
      vertex   -2.223542e+001 6.495540e+001 2.900000e+000
      vertex   -2.382313e+001 6.770540e+001 2.900000e+000
    endloop
  endfacet
  facet normal -0.000000e+000 -1.000000e+000 0.000000e+000
    outer loop
      vertex   -2.382313e+001 6.770540e+001 2.220446e-015
      vertex   -2.382313e+001 6.770540e+001 2.900000e+000
      vertex   -2.699855e+001 6.770540e+001 2.220446e-015
    endloop
  endfacet
  facet normal 0.000000e+000 -1.000000e+000 0.000000e+000
    outer loop
      vertex   -2.699855e+001 6.770540e+001 2.220446e-015
      vertex   -2.382313e+001 6.770540e+001 2.900000e+000
      vertex   -2.699855e+001 6.770540e+001 2.900000e+000
    endloop
  endfacet
  facet normal -0.000000e+000 -0.000000e+000 -1.000000e+000
    outer loop
      vertex   -2.874615e+001 6.514221e+001 2.100000e+000
      vertex   -2.874615e+001 6.432110e+001 2.100000e+000
      vertex   -2.898318e+001 6.473165e+001 2.100000e+000
    endloop
  endfacet
  facet normal 8.660254e-001 5.000000e-001 0.000000e+000
    outer loop
      vertex   -2.874615e+001 6.432110e+001 2.100000e+000
      vertex   -2.874615e+001 6.432110e+001 2.220446e-015
      vertex   -2.898318e+001 6.473165e+001 2.100000e+000
    endloop
  endfacet
  facet normal 8.660254e-001 5.000000e-001 6.774824e-015
    outer loop
      vertex   -2.898318e+001 6.473165e+001 2.100000e+000
      vertex   -2.874615e+001 6.432110e+001 2.220446e-015
      vertex   -2.898318e+001 6.473165e+001 2.220446e-015
    endloop
  endfacet
  facet normal 9.986273e-001 -5.233584e-002 2.108403e-003
    outer loop
      vertex   -2.739989e+001 6.516446e+001 2.900000e+000
      vertex   -2.740810e+001 6.506007e+001 4.200000e+000
      vertex   -2.741084e+001 6.495540e+001 2.900000e+000
    endloop
  endfacet
  facet normal 9.945197e-001 -1.045282e-001 -2.108403e-003
    outer loop
      vertex   -2.739989e+001 6.516446e+001 2.900000e+000
      vertex   -2.738622e+001 6.526827e+001 4.200000e+000
      vertex   -2.740810e+001 6.506007e+001 4.200000e+000
    endloop
  endfacet
  facet normal 9.876861e-001 -1.564341e-001 2.108403e-003
    outer loop
      vertex   -2.739989e+001 6.516446e+001 2.900000e+000
      vertex   -2.736714e+001 6.537122e+001 2.900000e+000
      vertex   -2.738622e+001 6.526827e+001 4.200000e+000
    endloop
  endfacet
  facet normal 9.781454e-001 -2.079112e-001 -2.108403e-003
    outer loop
      vertex   -2.738622e+001 6.526827e+001 4.200000e+000
      vertex   -2.736714e+001 6.537122e+001 2.900000e+000
      vertex   -2.734269e+001 6.547304e+001 4.200000e+000
    endloop
  endfacet
  facet normal 9.659237e-001 -2.588185e-001 2.108403e-003
    outer loop
      vertex   -2.734269e+001 6.547304e+001 4.200000e+000
      vertex   -2.736714e+001 6.537122e+001 2.900000e+000
      vertex   -2.731295e+001 6.557343e+001 2.900000e+000
    endloop
  endfacet
  facet normal 9.335784e-001 -3.583672e-001 2.108403e-003
    outer loop
      vertex   -2.727800e+001 6.567213e+001 4.200000e+000
      vertex   -2.731295e+001 6.557343e+001 2.900000e+000
      vertex   -2.723793e+001 6.576887e+001 2.900000e+000
    endloop
  endfacet
  facet normal 8.910045e-001 -4.539895e-001 2.108403e-003
    outer loop
      vertex   -2.719285e+001 6.586338e+001 4.200000e+000
      vertex   -2.723793e+001 6.576887e+001 2.900000e+000
      vertex   -2.714289e+001 6.595540e+001 2.900000e+000
    endloop
  endfacet
  facet normal 8.386687e-001 -5.446378e-001 2.108403e-003
    outer loop
      vertex   -2.708818e+001 6.604468e+001 4.200000e+000
      vertex   -2.714289e+001 6.595540e+001 2.900000e+000
      vertex   -2.702888e+001 6.613097e+001 2.900000e+000
    endloop
  endfacet
  facet normal 7.771442e-001 -6.293190e-001 2.108403e-003
    outer loop
      vertex   -2.696513e+001 6.621404e+001 4.200000e+000
      vertex   -2.702888e+001 6.613097e+001 2.900000e+000
      vertex   -2.689713e+001 6.629366e+001 2.900000e+000
    endloop
  endfacet
  facet normal 7.071052e-001 -7.071052e-001 2.108403e-003
    outer loop
      vertex   -2.682506e+001 6.636961e+001 4.200000e+000
      vertex   -2.689713e+001 6.629366e+001 2.900000e+000
      vertex   -2.674910e+001 6.644169e+001 2.900000e+000
    endloop
  endfacet
  facet normal 6.293190e-001 -7.771442e-001 2.108403e-003
    outer loop
      vertex   -2.666948e+001 6.650969e+001 4.200000e+000
      vertex   -2.674910e+001 6.644169e+001 2.900000e+000
      vertex   -2.658641e+001 6.657343e+001 2.900000e+000
    endloop
  endfacet
  facet normal 5.446378e-001 -8.386687e-001 2.108403e-003
    outer loop
      vertex   -2.650012e+001 6.663274e+001 4.200000e+000
      vertex   -2.658641e+001 6.657343e+001 2.900000e+000
      vertex   -2.641084e+001 6.668745e+001 2.900000e+000
    endloop
  endfacet
  facet normal 4.539895e-001 -8.910045e-001 2.108403e-003
    outer loop
      vertex   -2.631882e+001 6.673741e+001 4.200000e+000
      vertex   -2.641084e+001 6.668745e+001 2.900000e+000
      vertex   -2.622431e+001 6.678249e+001 2.900000e+000
    endloop
  endfacet
  facet normal 3.583672e-001 -9.335784e-001 2.108403e-003
    outer loop
      vertex   -2.612758e+001 6.682256e+001 4.200000e+000
      vertex   -2.622431e+001 6.678249e+001 2.900000e+000
      vertex   -2.602888e+001 6.685751e+001 2.900000e+000
    endloop
  endfacet
  facet normal 2.588185e-001 -9.659237e-001 2.108403e-003
    outer loop
      vertex   -2.592848e+001 6.688725e+001 4.200000e+000
      vertex   -2.602888e+001 6.685751e+001 2.900000e+000
      vertex   -2.582666e+001 6.691169e+001 2.900000e+000
    endloop
  endfacet
  facet normal 1.564341e-001 -9.876861e-001 2.108403e-003
    outer loop
      vertex   -2.572371e+001 6.693078e+001 4.200000e+000
      vertex   -2.582666e+001 6.691169e+001 2.900000e+000
      vertex   -2.561990e+001 6.694444e+001 2.900000e+000
    endloop
  endfacet
  facet normal 5.233584e-002 -9.986273e-001 2.108403e-003
    outer loop
      vertex   -2.551551e+001 6.695266e+001 4.200000e+000
      vertex   -2.561990e+001 6.694444e+001 2.900000e+000
      vertex   -2.541084e+001 6.695540e+001 2.900000e+000
    endloop
  endfacet
  facet normal -5.233584e-002 -9.986273e-001 2.108403e-003
    outer loop
      vertex   -2.530617e+001 6.695266e+001 4.200000e+000
      vertex   -2.541084e+001 6.695540e+001 2.900000e+000
      vertex   -2.520178e+001 6.694444e+001 2.900000e+000
    endloop
  endfacet
  facet normal -1.564341e-001 -9.876861e-001 2.108403e-003
    outer loop
      vertex   -2.509797e+001 6.693078e+001 4.200000e+000
      vertex   -2.520178e+001 6.694444e+001 2.900000e+000
      vertex   -2.499502e+001 6.691169e+001 2.900000e+000
    endloop
  endfacet
  facet normal -2.588185e-001 -9.659237e-001 2.108403e-003
    outer loop
      vertex   -2.489320e+001 6.688725e+001 4.200000e+000
      vertex   -2.499502e+001 6.691169e+001 2.900000e+000
      vertex   -2.479281e+001 6.685751e+001 2.900000e+000
    endloop
  endfacet
  facet normal -3.583672e-001 -9.335784e-001 2.108403e-003
    outer loop
      vertex   -2.469411e+001 6.682256e+001 4.200000e+000
      vertex   -2.479281e+001 6.685751e+001 2.900000e+000
      vertex   -2.459737e+001 6.678249e+001 2.900000e+000
    endloop
  endfacet
  facet normal -4.539895e-001 -8.910045e-001 2.108403e-003
    outer loop
      vertex   -2.450286e+001 6.673741e+001 4.200000e+000
      vertex   -2.459737e+001 6.678249e+001 2.900000e+000
      vertex   -2.441084e+001 6.668745e+001 2.900000e+000
    endloop
  endfacet
  facet normal -5.446378e-001 -8.386687e-001 2.108403e-003
    outer loop
      vertex   -2.432156e+001 6.663274e+001 4.200000e+000
      vertex   -2.441084e+001 6.668745e+001 2.900000e+000
      vertex   -2.423527e+001 6.657343e+001 2.900000e+000
    endloop
  endfacet
  facet normal -6.293190e-001 -7.771442e-001 2.108403e-003
    outer loop
      vertex   -2.415220e+001 6.650969e+001 4.200000e+000
      vertex   -2.423527e+001 6.657343e+001 2.900000e+000
      vertex   -2.407258e+001 6.644169e+001 2.900000e+000
    endloop
  endfacet
  facet normal -7.071052e-001 -7.071052e-001 2.108403e-003
    outer loop
      vertex   -2.399663e+001 6.636961e+001 4.200000e+000
      vertex   -2.407258e+001 6.644169e+001 2.900000e+000
      vertex   -2.392455e+001 6.629366e+001 2.900000e+000
    endloop
  endfacet
  facet normal -7.771442e-001 -6.293190e-001 2.108403e-003
    outer loop
      vertex   -2.385655e+001 6.621404e+001 4.200000e+000
      vertex   -2.392455e+001 6.629366e+001 2.900000e+000
      vertex   -2.379281e+001 6.613097e+001 2.900000e+000
    endloop
  endfacet
  facet normal -8.386687e-001 -5.446378e-001 2.108403e-003
    outer loop
      vertex   -2.373350e+001 6.604468e+001 4.200000e+000
      vertex   -2.379281e+001 6.613097e+001 2.900000e+000
      vertex   -2.367879e+001 6.595540e+001 2.900000e+000
    endloop
  endfacet
  facet normal -8.910045e-001 -4.539895e-001 2.108403e-003
    outer loop
      vertex   -2.362883e+001 6.586338e+001 4.200000e+000
      vertex   -2.367879e+001 6.595540e+001 2.900000e+000
      vertex   -2.358375e+001 6.576887e+001 2.900000e+000
    endloop
  endfacet
  facet normal -9.335784e-001 -3.583672e-001 2.108403e-003
    outer loop
      vertex   -2.354368e+001 6.567213e+001 4.200000e+000
      vertex   -2.358375e+001 6.576887e+001 2.900000e+000
      vertex   -2.350873e+001 6.557343e+001 2.900000e+000
    endloop
  endfacet
  facet normal -9.659237e-001 -2.588185e-001 2.108403e-003
    outer loop
      vertex   -2.347899e+001 6.547304e+001 4.200000e+000
      vertex   -2.350873e+001 6.557343e+001 2.900000e+000
      vertex   -2.345455e+001 6.537122e+001 2.900000e+000
    endloop
  endfacet
  facet normal -9.876861e-001 -1.564341e-001 2.108403e-003
    outer loop
      vertex   -2.343546e+001 6.526827e+001 4.200000e+000
      vertex   -2.345455e+001 6.537122e+001 2.900000e+000
      vertex   -2.342180e+001 6.516446e+001 2.900000e+000
    endloop
  endfacet
  facet normal -9.986273e-001 -5.233584e-002 2.108403e-003
    outer loop
      vertex   -2.341358e+001 6.506007e+001 4.200000e+000
      vertex   -2.342180e+001 6.516446e+001 2.900000e+000
      vertex   -2.341084e+001 6.495540e+001 2.900000e+000
    endloop
  endfacet
  facet normal -9.986273e-001 5.233584e-002 2.108403e-003
    outer loop
      vertex   -2.341358e+001 6.485073e+001 4.200000e+000
      vertex   -2.341084e+001 6.495540e+001 2.900000e+000
      vertex   -2.342180e+001 6.474634e+001 2.900000e+000
    endloop
  endfacet
  facet normal -9.876861e-001 1.564341e-001 2.108403e-003
    outer loop
      vertex   -2.343546e+001 6.464253e+001 4.200000e+000
      vertex   -2.342180e+001 6.474634e+001 2.900000e+000
      vertex   -2.345455e+001 6.453958e+001 2.900000e+000
    endloop
  endfacet
  facet normal -9.659237e-001 2.588185e-001 2.108403e-003
    outer loop
      vertex   -2.347899e+001 6.443776e+001 4.200000e+000
      vertex   -2.345455e+001 6.453958e+001 2.900000e+000
      vertex   -2.350873e+001 6.433736e+001 2.900000e+000
    endloop
  endfacet
  facet normal -9.335784e-001 3.583672e-001 2.108403e-003
    outer loop
      vertex   -2.354368e+001 6.423866e+001 4.200000e+000
      vertex   -2.350873e+001 6.433736e+001 2.900000e+000
      vertex   -2.358375e+001 6.414193e+001 2.900000e+000
    endloop
  endfacet
  facet normal -8.910045e-001 4.539895e-001 2.108403e-003
    outer loop
      vertex   -2.362883e+001 6.404742e+001 4.200000e+000
      vertex   -2.358375e+001 6.414193e+001 2.900000e+000
      vertex   -2.367879e+001 6.395540e+001 2.900000e+000
    endloop
  endfacet
  facet normal -8.386687e-001 5.446378e-001 2.108403e-003
    outer loop
      vertex   -2.373350e+001 6.386612e+001 4.200000e+000
      vertex   -2.367879e+001 6.395540e+001 2.900000e+000
      vertex   -2.379281e+001 6.377983e+001 2.900000e+000
    endloop
  endfacet
  facet normal -7.771442e-001 6.293190e-001 2.108403e-003
    outer loop
      vertex   -2.385655e+001 6.369676e+001 4.200000e+000
      vertex   -2.379281e+001 6.377983e+001 2.900000e+000
      vertex   -2.392455e+001 6.361714e+001 2.900000e+000
    endloop
  endfacet
  facet normal -7.071052e-001 7.071052e-001 2.108403e-003
    outer loop
      vertex   -2.399663e+001 6.354119e+001 4.200000e+000
      vertex   -2.392455e+001 6.361714e+001 2.900000e+000
      vertex   -2.407258e+001 6.346911e+001 2.900000e+000
    endloop
  endfacet
  facet normal -6.293190e-001 7.771442e-001 2.108403e-003
    outer loop
      vertex   -2.415220e+001 6.340111e+001 4.200000e+000
      vertex   -2.407258e+001 6.346911e+001 2.900000e+000
      vertex   -2.423527e+001 6.333736e+001 2.900000e+000
    endloop
  endfacet
  facet normal -5.446378e-001 8.386687e-001 2.108403e-003
    outer loop
      vertex   -2.432156e+001 6.327806e+001 4.200000e+000
      vertex   -2.423527e+001 6.333736e+001 2.900000e+000
      vertex   -2.441084e+001 6.322335e+001 2.900000e+000
    endloop
  endfacet
  facet normal -4.539895e-001 8.910045e-001 2.108403e-003
    outer loop
      vertex   -2.450286e+001 6.317339e+001 4.200000e+000
      vertex   -2.441084e+001 6.322335e+001 2.900000e+000
      vertex   -2.459737e+001 6.312831e+001 2.900000e+000
    endloop
  endfacet
  facet normal -3.583672e-001 9.335784e-001 2.108403e-003
    outer loop
      vertex   -2.469411e+001 6.308824e+001 4.200000e+000
      vertex   -2.459737e+001 6.312831e+001 2.900000e+000
      vertex   -2.479281e+001 6.305329e+001 2.900000e+000
    endloop
  endfacet
  facet normal -2.588185e-001 9.659237e-001 2.108403e-003
    outer loop
      vertex   -2.489320e+001 6.302355e+001 4.200000e+000
      vertex   -2.479281e+001 6.305329e+001 2.900000e+000
      vertex   -2.499502e+001 6.299910e+001 2.900000e+000
    endloop
  endfacet
  facet normal -1.564341e-001 9.876861e-001 2.108403e-003
    outer loop
      vertex   -2.509797e+001 6.298002e+001 4.200000e+000
      vertex   -2.499502e+001 6.299910e+001 2.900000e+000
      vertex   -2.520178e+001 6.296635e+001 2.900000e+000
    endloop
  endfacet
  facet normal -5.233584e-002 9.986273e-001 2.108403e-003
    outer loop
      vertex   -2.530617e+001 6.295814e+001 4.200000e+000
      vertex   -2.520178e+001 6.296635e+001 2.900000e+000
      vertex   -2.541084e+001 6.295540e+001 2.900000e+000
    endloop
  endfacet
  facet normal 5.233584e-002 9.986273e-001 2.108403e-003
    outer loop
      vertex   -2.551551e+001 6.295814e+001 4.200000e+000
      vertex   -2.541084e+001 6.295540e+001 2.900000e+000
      vertex   -2.561990e+001 6.296635e+001 2.900000e+000
    endloop
  endfacet
  facet normal 1.564341e-001 9.876861e-001 2.108403e-003
    outer loop
      vertex   -2.572371e+001 6.298002e+001 4.200000e+000
      vertex   -2.561990e+001 6.296635e+001 2.900000e+000
      vertex   -2.582666e+001 6.299910e+001 2.900000e+000
    endloop
  endfacet
  facet normal 2.588185e-001 9.659237e-001 2.108403e-003
    outer loop
      vertex   -2.592848e+001 6.302355e+001 4.200000e+000
      vertex   -2.582666e+001 6.299910e+001 2.900000e+000
      vertex   -2.602888e+001 6.305329e+001 2.900000e+000
    endloop
  endfacet
  facet normal 3.583672e-001 9.335784e-001 2.108403e-003
    outer loop
      vertex   -2.612758e+001 6.308824e+001 4.200000e+000
      vertex   -2.602888e+001 6.305329e+001 2.900000e+000
      vertex   -2.622431e+001 6.312831e+001 2.900000e+000
    endloop
  endfacet
  facet normal 4.539895e-001 8.910045e-001 2.108403e-003
    outer loop
      vertex   -2.631882e+001 6.317339e+001 4.200000e+000
      vertex   -2.622431e+001 6.312831e+001 2.900000e+000
      vertex   -2.641084e+001 6.322335e+001 2.900000e+000
    endloop
  endfacet
  facet normal 5.446378e-001 8.386687e-001 2.108403e-003
    outer loop
      vertex   -2.650012e+001 6.327806e+001 4.200000e+000
      vertex   -2.641084e+001 6.322335e+001 2.900000e+000
      vertex   -2.658641e+001 6.333736e+001 2.900000e+000
    endloop
  endfacet
  facet normal 6.293190e-001 7.771442e-001 2.108403e-003
    outer loop
      vertex   -2.666948e+001 6.340111e+001 4.200000e+000
      vertex   -2.658641e+001 6.333736e+001 2.900000e+000
      vertex   -2.674910e+001 6.346911e+001 2.900000e+000
    endloop
  endfacet
  facet normal 7.071052e-001 7.071052e-001 2.108403e-003
    outer loop
      vertex   -2.682506e+001 6.354119e+001 4.200000e+000
      vertex   -2.674910e+001 6.346911e+001 2.900000e+000
      vertex   -2.689713e+001 6.361714e+001 2.900000e+000
    endloop
  endfacet
  facet normal 7.771442e-001 6.293190e-001 2.108403e-003
    outer loop
      vertex   -2.696513e+001 6.369676e+001 4.200000e+000
      vertex   -2.689713e+001 6.361714e+001 2.900000e+000
      vertex   -2.702888e+001 6.377983e+001 2.900000e+000
    endloop
  endfacet
  facet normal 8.386687e-001 5.446378e-001 2.108403e-003
    outer loop
      vertex   -2.708818e+001 6.386612e+001 4.200000e+000
      vertex   -2.702888e+001 6.377983e+001 2.900000e+000
      vertex   -2.714289e+001 6.395540e+001 2.900000e+000
    endloop
  endfacet
  facet normal 8.910045e-001 4.539895e-001 2.108403e-003
    outer loop
      vertex   -2.719285e+001 6.404742e+001 4.200000e+000
      vertex   -2.714289e+001 6.395540e+001 2.900000e+000
      vertex   -2.723793e+001 6.414193e+001 2.900000e+000
    endloop
  endfacet
  facet normal 9.335784e-001 3.583672e-001 2.108403e-003
    outer loop
      vertex   -2.727800e+001 6.423866e+001 4.200000e+000
      vertex   -2.723793e+001 6.414193e+001 2.900000e+000
      vertex   -2.731295e+001 6.433736e+001 2.900000e+000
    endloop
  endfacet
  facet normal 9.659237e-001 2.588185e-001 2.108403e-003
    outer loop
      vertex   -2.734269e+001 6.443776e+001 4.200000e+000
      vertex   -2.731295e+001 6.433736e+001 2.900000e+000
      vertex   -2.736714e+001 6.453958e+001 2.900000e+000
    endloop
  endfacet
  facet normal 9.876861e-001 1.564341e-001 2.108403e-003
    outer loop
      vertex   -2.738622e+001 6.464253e+001 4.200000e+000
      vertex   -2.736714e+001 6.453958e+001 2.900000e+000
      vertex   -2.739989e+001 6.474634e+001 2.900000e+000
    endloop
  endfacet
  facet normal 9.986273e-001 5.233584e-002 2.108403e-003
    outer loop
      vertex   -2.740810e+001 6.485073e+001 4.200000e+000
      vertex   -2.739989e+001 6.474634e+001 2.900000e+000
      vertex   -2.741084e+001 6.495540e+001 2.900000e+000
    endloop
  endfacet
  facet normal 9.999978e-001 0.000000e+000 -2.108403e-003
    outer loop
      vertex   -2.740810e+001 6.506007e+001 4.200000e+000
      vertex   -2.740810e+001 6.485073e+001 4.200000e+000
      vertex   -2.741084e+001 6.495540e+001 2.900000e+000
    endloop
  endfacet
  facet normal 9.510544e-001 -3.090163e-001 -2.108403e-003
    outer loop
      vertex   -2.734269e+001 6.547304e+001 4.200000e+000
      vertex   -2.731295e+001 6.557343e+001 2.900000e+000
      vertex   -2.727800e+001 6.567213e+001 4.200000e+000
    endloop
  endfacet
  facet normal 9.135434e-001 -4.067357e-001 -2.108403e-003
    outer loop
      vertex   -2.727800e+001 6.567213e+001 4.200000e+000
      vertex   -2.723793e+001 6.576887e+001 2.900000e+000
      vertex   -2.719285e+001 6.586338e+001 4.200000e+000
    endloop
  endfacet
  facet normal 8.660235e-001 -4.999989e-001 -2.108403e-003
    outer loop
      vertex   -2.719285e+001 6.586338e+001 4.200000e+000
      vertex   -2.714289e+001 6.595540e+001 2.900000e+000
      vertex   -2.708818e+001 6.604468e+001 4.200000e+000
    endloop
  endfacet
  facet normal 8.090152e-001 -5.877839e-001 -2.108403e-003
    outer loop
      vertex   -2.708818e+001 6.604468e+001 4.200000e+000
      vertex   -2.702888e+001 6.613097e+001 2.900000e+000
      vertex   -2.696513e+001 6.621404e+001 4.200000e+000
    endloop
  endfacet
  facet normal 7.431432e-001 -6.691291e-001 -2.108403e-003
    outer loop
      vertex   -2.696513e+001 6.621404e+001 4.200000e+000
      vertex   -2.689713e+001 6.629366e+001 2.900000e+000
      vertex   -2.682506e+001 6.636961e+001 4.200000e+000
    endloop
  endfacet
  facet normal 6.691291e-001 -7.431432e-001 -2.108403e-003
    outer loop
      vertex   -2.682506e+001 6.636961e+001 4.200000e+000
      vertex   -2.674910e+001 6.644169e+001 2.900000e+000
      vertex   -2.666948e+001 6.650969e+001 4.200000e+000
    endloop
  endfacet
  facet normal 5.877839e-001 -8.090152e-001 -2.108403e-003
    outer loop
      vertex   -2.666948e+001 6.650969e+001 4.200000e+000
      vertex   -2.658641e+001 6.657343e+001 2.900000e+000
      vertex   -2.650012e+001 6.663274e+001 4.200000e+000
    endloop
  endfacet
  facet normal 4.999989e-001 -8.660235e-001 -2.108403e-003
    outer loop
      vertex   -2.650012e+001 6.663274e+001 4.200000e+000
      vertex   -2.641084e+001 6.668745e+001 2.900000e+000
      vertex   -2.631882e+001 6.673741e+001 4.200000e+000
    endloop
  endfacet
  facet normal 4.067357e-001 -9.135434e-001 -2.108403e-003
    outer loop
      vertex   -2.631882e+001 6.673741e+001 4.200000e+000
      vertex   -2.622431e+001 6.678249e+001 2.900000e+000
      vertex   -2.612758e+001 6.682256e+001 4.200000e+000
    endloop
  endfacet
  facet normal 3.090163e-001 -9.510544e-001 -2.108403e-003
    outer loop
      vertex   -2.612758e+001 6.682256e+001 4.200000e+000
      vertex   -2.602888e+001 6.685751e+001 2.900000e+000
      vertex   -2.592848e+001 6.688725e+001 4.200000e+000
    endloop
  endfacet
  facet normal 2.079112e-001 -9.781454e-001 -2.108403e-003
    outer loop
      vertex   -2.592848e+001 6.688725e+001 4.200000e+000
      vertex   -2.582666e+001 6.691169e+001 2.900000e+000
      vertex   -2.572371e+001 6.693078e+001 4.200000e+000
    endloop
  endfacet
  facet normal 1.045282e-001 -9.945197e-001 -2.108403e-003
    outer loop
      vertex   -2.572371e+001 6.693078e+001 4.200000e+000
      vertex   -2.561990e+001 6.694444e+001 2.900000e+000
      vertex   -2.551551e+001 6.695266e+001 4.200000e+000
    endloop
  endfacet
  facet normal 0.000000e+000 -9.999978e-001 -2.108403e-003
    outer loop
      vertex   -2.551551e+001 6.695266e+001 4.200000e+000
      vertex   -2.541084e+001 6.695540e+001 2.900000e+000
      vertex   -2.530617e+001 6.695266e+001 4.200000e+000
    endloop
  endfacet
  facet normal -1.045282e-001 -9.945197e-001 -2.108403e-003
    outer loop
      vertex   -2.530617e+001 6.695266e+001 4.200000e+000
      vertex   -2.520178e+001 6.694444e+001 2.900000e+000
      vertex   -2.509797e+001 6.693078e+001 4.200000e+000
    endloop
  endfacet
  facet normal -2.079112e-001 -9.781454e-001 -2.108403e-003
    outer loop
      vertex   -2.509797e+001 6.693078e+001 4.200000e+000
      vertex   -2.499502e+001 6.691169e+001 2.900000e+000
      vertex   -2.489320e+001 6.688725e+001 4.200000e+000
    endloop
  endfacet
  facet normal -3.090163e-001 -9.510544e-001 -2.108403e-003
    outer loop
      vertex   -2.489320e+001 6.688725e+001 4.200000e+000
      vertex   -2.479281e+001 6.685751e+001 2.900000e+000
      vertex   -2.469411e+001 6.682256e+001 4.200000e+000
    endloop
  endfacet
  facet normal -4.067357e-001 -9.135434e-001 -2.108403e-003
    outer loop
      vertex   -2.469411e+001 6.682256e+001 4.200000e+000
      vertex   -2.459737e+001 6.678249e+001 2.900000e+000
      vertex   -2.450286e+001 6.673741e+001 4.200000e+000
    endloop
  endfacet
  facet normal -4.999989e-001 -8.660235e-001 -2.108403e-003
    outer loop
      vertex   -2.450286e+001 6.673741e+001 4.200000e+000
      vertex   -2.441084e+001 6.668745e+001 2.900000e+000
      vertex   -2.432156e+001 6.663274e+001 4.200000e+000
    endloop
  endfacet
  facet normal -5.877839e-001 -8.090152e-001 -2.108403e-003
    outer loop
      vertex   -2.432156e+001 6.663274e+001 4.200000e+000
      vertex   -2.423527e+001 6.657343e+001 2.900000e+000
      vertex   -2.415220e+001 6.650969e+001 4.200000e+000
    endloop
  endfacet
  facet normal -6.691291e-001 -7.431432e-001 -2.108403e-003
    outer loop
      vertex   -2.415220e+001 6.650969e+001 4.200000e+000
      vertex   -2.407258e+001 6.644169e+001 2.900000e+000
      vertex   -2.399663e+001 6.636961e+001 4.200000e+000
    endloop
  endfacet
  facet normal -7.431432e-001 -6.691291e-001 -2.108403e-003
    outer loop
      vertex   -2.399663e+001 6.636961e+001 4.200000e+000
      vertex   -2.392455e+001 6.629366e+001 2.900000e+000
      vertex   -2.385655e+001 6.621404e+001 4.200000e+000
    endloop
  endfacet
  facet normal -8.090152e-001 -5.877839e-001 -2.108403e-003
    outer loop
      vertex   -2.385655e+001 6.621404e+001 4.200000e+000
      vertex   -2.379281e+001 6.613097e+001 2.900000e+000
      vertex   -2.373350e+001 6.604468e+001 4.200000e+000
    endloop
  endfacet
  facet normal -8.660235e-001 -4.999989e-001 -2.108403e-003
    outer loop
      vertex   -2.373350e+001 6.604468e+001 4.200000e+000
      vertex   -2.367879e+001 6.595540e+001 2.900000e+000
      vertex   -2.362883e+001 6.586338e+001 4.200000e+000
    endloop
  endfacet
  facet normal -9.135434e-001 -4.067357e-001 -2.108403e-003
    outer loop
      vertex   -2.362883e+001 6.586338e+001 4.200000e+000
      vertex   -2.358375e+001 6.576887e+001 2.900000e+000
      vertex   -2.354368e+001 6.567213e+001 4.200000e+000
    endloop
  endfacet
  facet normal -9.510544e-001 -3.090163e-001 -2.108403e-003
    outer loop
      vertex   -2.354368e+001 6.567213e+001 4.200000e+000
      vertex   -2.350873e+001 6.557343e+001 2.900000e+000
      vertex   -2.347899e+001 6.547304e+001 4.200000e+000
    endloop
  endfacet
  facet normal -9.781454e-001 -2.079112e-001 -2.108403e-003
    outer loop
      vertex   -2.347899e+001 6.547304e+001 4.200000e+000
      vertex   -2.345455e+001 6.537122e+001 2.900000e+000
      vertex   -2.343546e+001 6.526827e+001 4.200000e+000
    endloop
  endfacet
  facet normal -9.945197e-001 -1.045282e-001 -2.108403e-003
    outer loop
      vertex   -2.343546e+001 6.526827e+001 4.200000e+000
      vertex   -2.342180e+001 6.516446e+001 2.900000e+000
      vertex   -2.341358e+001 6.506007e+001 4.200000e+000
    endloop
  endfacet
  facet normal -9.999978e-001 0.000000e+000 -2.108403e-003
    outer loop
      vertex   -2.341358e+001 6.506007e+001 4.200000e+000
      vertex   -2.341084e+001 6.495540e+001 2.900000e+000
      vertex   -2.341358e+001 6.485073e+001 4.200000e+000
    endloop
  endfacet
  facet normal -9.945197e-001 1.045282e-001 -2.108403e-003
    outer loop
      vertex   -2.341358e+001 6.485073e+001 4.200000e+000
      vertex   -2.342180e+001 6.474634e+001 2.900000e+000
      vertex   -2.343546e+001 6.464253e+001 4.200000e+000
    endloop
  endfacet
  facet normal -9.781454e-001 2.079112e-001 -2.108403e-003
    outer loop
      vertex   -2.343546e+001 6.464253e+001 4.200000e+000
      vertex   -2.345455e+001 6.453958e+001 2.900000e+000
      vertex   -2.347899e+001 6.443776e+001 4.200000e+000
    endloop
  endfacet
  facet normal -9.510544e-001 3.090163e-001 -2.108403e-003
    outer loop
      vertex   -2.347899e+001 6.443776e+001 4.200000e+000
      vertex   -2.350873e+001 6.433736e+001 2.900000e+000
      vertex   -2.354368e+001 6.423866e+001 4.200000e+000
    endloop
  endfacet
  facet normal -9.135434e-001 4.067357e-001 -2.108403e-003
    outer loop
      vertex   -2.354368e+001 6.423866e+001 4.200000e+000
      vertex   -2.358375e+001 6.414193e+001 2.900000e+000
      vertex   -2.362883e+001 6.404742e+001 4.200000e+000
    endloop
  endfacet
  facet normal -8.660235e-001 4.999989e-001 -2.108403e-003
    outer loop
      vertex   -2.362883e+001 6.404742e+001 4.200000e+000
      vertex   -2.367879e+001 6.395540e+001 2.900000e+000
      vertex   -2.373350e+001 6.386612e+001 4.200000e+000
    endloop
  endfacet
  facet normal -8.090152e-001 5.877839e-001 -2.108403e-003
    outer loop
      vertex   -2.373350e+001 6.386612e+001 4.200000e+000
      vertex   -2.379281e+001 6.377983e+001 2.900000e+000
      vertex   -2.385655e+001 6.369676e+001 4.200000e+000
    endloop
  endfacet
  facet normal -7.431432e-001 6.691291e-001 -2.108403e-003
    outer loop
      vertex   -2.385655e+001 6.369676e+001 4.200000e+000
      vertex   -2.392455e+001 6.361714e+001 2.900000e+000
      vertex   -2.399663e+001 6.354119e+001 4.200000e+000
    endloop
  endfacet
  facet normal -6.691291e-001 7.431432e-001 -2.108403e-003
    outer loop
      vertex   -2.399663e+001 6.354119e+001 4.200000e+000
      vertex   -2.407258e+001 6.346911e+001 2.900000e+000
      vertex   -2.415220e+001 6.340111e+001 4.200000e+000
    endloop
  endfacet
  facet normal -5.877839e-001 8.090152e-001 -2.108403e-003
    outer loop
      vertex   -2.415220e+001 6.340111e+001 4.200000e+000
      vertex   -2.423527e+001 6.333736e+001 2.900000e+000
      vertex   -2.432156e+001 6.327806e+001 4.200000e+000
    endloop
  endfacet
  facet normal -4.999989e-001 8.660235e-001 -2.108403e-003
    outer loop
      vertex   -2.432156e+001 6.327806e+001 4.200000e+000
      vertex   -2.441084e+001 6.322335e+001 2.900000e+000
      vertex   -2.450286e+001 6.317339e+001 4.200000e+000
    endloop
  endfacet
  facet normal -4.067357e-001 9.135434e-001 -2.108403e-003
    outer loop
      vertex   -2.450286e+001 6.317339e+001 4.200000e+000
      vertex   -2.459737e+001 6.312831e+001 2.900000e+000
      vertex   -2.469411e+001 6.308824e+001 4.200000e+000
    endloop
  endfacet
  facet normal -3.090163e-001 9.510544e-001 -2.108403e-003
    outer loop
      vertex   -2.469411e+001 6.308824e+001 4.200000e+000
      vertex   -2.479281e+001 6.305329e+001 2.900000e+000
      vertex   -2.489320e+001 6.302355e+001 4.200000e+000
    endloop
  endfacet
  facet normal -2.079112e-001 9.781454e-001 -2.108403e-003
    outer loop
      vertex   -2.489320e+001 6.302355e+001 4.200000e+000
      vertex   -2.499502e+001 6.299910e+001 2.900000e+000
      vertex   -2.509797e+001 6.298002e+001 4.200000e+000
    endloop
  endfacet
  facet normal -1.045282e-001 9.945197e-001 -2.108403e-003
    outer loop
      vertex   -2.509797e+001 6.298002e+001 4.200000e+000
      vertex   -2.520178e+001 6.296635e+001 2.900000e+000
      vertex   -2.530617e+001 6.295814e+001 4.200000e+000
    endloop
  endfacet
  facet normal 0.000000e+000 9.999978e-001 -2.108403e-003
    outer loop
      vertex   -2.530617e+001 6.295814e+001 4.200000e+000
      vertex   -2.541084e+001 6.295540e+001 2.900000e+000
      vertex   -2.551551e+001 6.295814e+001 4.200000e+000
    endloop
  endfacet
  facet normal 1.045282e-001 9.945197e-001 -2.108403e-003
    outer loop
      vertex   -2.551551e+001 6.295814e+001 4.200000e+000
      vertex   -2.561990e+001 6.296635e+001 2.900000e+000
      vertex   -2.572371e+001 6.298002e+001 4.200000e+000
    endloop
  endfacet
  facet normal 2.079112e-001 9.781454e-001 -2.108403e-003
    outer loop
      vertex   -2.572371e+001 6.298002e+001 4.200000e+000
      vertex   -2.582666e+001 6.299910e+001 2.900000e+000
      vertex   -2.592848e+001 6.302355e+001 4.200000e+000
    endloop
  endfacet
  facet normal 3.090163e-001 9.510544e-001 -2.108403e-003
    outer loop
      vertex   -2.592848e+001 6.302355e+001 4.200000e+000
      vertex   -2.602888e+001 6.305329e+001 2.900000e+000
      vertex   -2.612758e+001 6.308824e+001 4.200000e+000
    endloop
  endfacet
  facet normal 4.067357e-001 9.135434e-001 -2.108403e-003
    outer loop
      vertex   -2.612758e+001 6.308824e+001 4.200000e+000
      vertex   -2.622431e+001 6.312831e+001 2.900000e+000
      vertex   -2.631882e+001 6.317339e+001 4.200000e+000
    endloop
  endfacet
  facet normal 4.999989e-001 8.660235e-001 -2.108403e-003
    outer loop
      vertex   -2.631882e+001 6.317339e+001 4.200000e+000
      vertex   -2.641084e+001 6.322335e+001 2.900000e+000
      vertex   -2.650012e+001 6.327806e+001 4.200000e+000
    endloop
  endfacet
  facet normal 5.877839e-001 8.090152e-001 -2.108403e-003
    outer loop
      vertex   -2.650012e+001 6.327806e+001 4.200000e+000
      vertex   -2.658641e+001 6.333736e+001 2.900000e+000
      vertex   -2.666948e+001 6.340111e+001 4.200000e+000
    endloop
  endfacet
  facet normal 6.691291e-001 7.431432e-001 -2.108403e-003
    outer loop
      vertex   -2.666948e+001 6.340111e+001 4.200000e+000
      vertex   -2.674910e+001 6.346911e+001 2.900000e+000
      vertex   -2.682506e+001 6.354119e+001 4.200000e+000
    endloop
  endfacet
  facet normal 7.431432e-001 6.691291e-001 -2.108403e-003
    outer loop
      vertex   -2.682506e+001 6.354119e+001 4.200000e+000
      vertex   -2.689713e+001 6.361714e+001 2.900000e+000
      vertex   -2.696513e+001 6.369676e+001 4.200000e+000
    endloop
  endfacet
  facet normal 8.090152e-001 5.877839e-001 -2.108403e-003
    outer loop
      vertex   -2.696513e+001 6.369676e+001 4.200000e+000
      vertex   -2.702888e+001 6.377983e+001 2.900000e+000
      vertex   -2.708818e+001 6.386612e+001 4.200000e+000
    endloop
  endfacet
  facet normal 8.660235e-001 4.999989e-001 -2.108403e-003
    outer loop
      vertex   -2.708818e+001 6.386612e+001 4.200000e+000
      vertex   -2.714289e+001 6.395540e+001 2.900000e+000
      vertex   -2.719285e+001 6.404742e+001 4.200000e+000
    endloop
  endfacet
  facet normal 9.135434e-001 4.067357e-001 -2.108403e-003
    outer loop
      vertex   -2.719285e+001 6.404742e+001 4.200000e+000
      vertex   -2.723793e+001 6.414193e+001 2.900000e+000
      vertex   -2.727800e+001 6.423866e+001 4.200000e+000
    endloop
  endfacet
  facet normal 9.510544e-001 3.090163e-001 -2.108403e-003
    outer loop
      vertex   -2.727800e+001 6.423866e+001 4.200000e+000
      vertex   -2.731295e+001 6.433736e+001 2.900000e+000
      vertex   -2.734269e+001 6.443776e+001 4.200000e+000
    endloop
  endfacet
  facet normal 9.781454e-001 2.079112e-001 -2.108403e-003
    outer loop
      vertex   -2.734269e+001 6.443776e+001 4.200000e+000
      vertex   -2.736714e+001 6.453958e+001 2.900000e+000
      vertex   -2.738622e+001 6.464253e+001 4.200000e+000
    endloop
  endfacet
  facet normal 9.945197e-001 1.045282e-001 -2.108403e-003
    outer loop
      vertex   -2.738622e+001 6.464253e+001 4.200000e+000
      vertex   -2.739989e+001 6.474634e+001 2.900000e+000
      vertex   -2.740810e+001 6.485073e+001 4.200000e+000
    endloop
  endfacet
  facet normal 8.660254e-001 -5.000000e-001 -1.015061e-014
    outer loop
      vertex   -2.874615e+001 6.514221e+001 2.220446e-015
      vertex   -2.874615e+001 6.514221e+001 2.100000e+000
      vertex   -2.898318e+001 6.473165e+001 2.220446e-015
    endloop
  endfacet
  facet normal 8.660254e-001 -5.000000e-001 -6.774824e-015
    outer loop
      vertex   -2.898318e+001 6.473165e+001 2.220446e-015
      vertex   -2.874615e+001 6.514221e+001 2.100000e+000
      vertex   -2.898318e+001 6.473165e+001 2.100000e+000
    endloop
  endfacet
  facet normal -1.000000e+000 0.000000e+000 1.973730e-015
    outer loop
      vertex   -1.956270e+001 6.351423e+001 4.200000e+000
      vertex   -1.956270e+001 6.351423e+001 7.800000e+000
      vertex   -1.956270e+001 6.651423e+001 4.200000e+000
    endloop
  endfacet
  facet normal -1.000000e+000 -2.368476e-015 0.000000e+000
    outer loop
      vertex   -1.956270e+001 6.651423e+001 4.200000e+000
      vertex   -1.956270e+001 6.351423e+001 7.800000e+000
      vertex   -1.956270e+001 6.651423e+001 7.800000e+000
    endloop
  endfacet
  facet normal 0.000000e+000 -1.000000e+000 0.000000e+000
    outer loop
      vertex   -1.956270e+001 6.351423e+001 4.200000e+000
      vertex   -1.746831e+001 6.351423e+001 4.200000e+000
      vertex   -1.956270e+001 6.351423e+001 7.800000e+000
    endloop
  endfacet
  facet normal 0.000000e+000 -1.000000e+000 0.000000e+000
    outer loop
      vertex   -1.956270e+001 6.351423e+001 7.800000e+000
      vertex   -1.746831e+001 6.351423e+001 4.200000e+000
      vertex   -1.746831e+001 6.351423e+001 7.800000e+000
    endloop
  endfacet
  facet normal 0.000000e+000 0.000000e+000 1.000000e+000
    outer loop
      vertex   -2.666948e+001 6.340111e+001 4.200000e+000
      vertex   -2.682506e+001 6.354119e+001 4.200000e+000
      vertex   -3.046831e+001 5.961423e+001 4.200000e+000
    endloop
  endfacet
  facet normal -0.000000e+000 0.000000e+000 1.000000e+000
    outer loop
      vertex   -2.650012e+001 6.327806e+001 4.200000e+000
      vertex   -3.046831e+001 5.961423e+001 4.200000e+000
      vertex   -2.631882e+001 6.317339e+001 4.200000e+000
    endloop
  endfacet
  facet normal 0.000000e+000 0.000000e+000 1.000000e+000
    outer loop
      vertex   -2.650012e+001 6.327806e+001 4.200000e+000
      vertex   -2.666948e+001 6.340111e+001 4.200000e+000
      vertex   -3.046831e+001 5.961423e+001 4.200000e+000
    endloop
  endfacet
  facet normal 0.000000e+000 0.000000e+000 1.000000e+000
    outer loop
      vertex   -2.682506e+001 6.354119e+001 4.200000e+000
      vertex   -2.696513e+001 6.369676e+001 4.200000e+000
      vertex   -3.046831e+001 5.961423e+001 4.200000e+000
    endloop
  endfacet
  facet normal 0.000000e+000 -0.000000e+000 1.000000e+000
    outer loop
      vertex   -3.046831e+001 5.961423e+001 4.200000e+000
      vertex   -2.696513e+001 6.369676e+001 4.200000e+000
      vertex   -2.708818e+001 6.386612e+001 4.200000e+000
    endloop
  endfacet
  facet normal -0.000000e+000 0.000000e+000 1.000000e+000
    outer loop
      vertex   -2.719285e+001 6.404742e+001 4.200000e+000
      vertex   -3.046831e+001 5.961423e+001 4.200000e+000
      vertex   -2.708818e+001 6.386612e+001 4.200000e+000
    endloop
  endfacet
  facet normal 0.000000e+000 0.000000e+000 1.000000e+000
    outer loop
      vertex   -2.719285e+001 6.404742e+001 4.200000e+000
      vertex   -2.727800e+001 6.423866e+001 4.200000e+000
      vertex   -3.046831e+001 5.961423e+001 4.200000e+000
    endloop
  endfacet
  facet normal 0.000000e+000 -0.000000e+000 1.000000e+000
    outer loop
      vertex   -3.046831e+001 5.961423e+001 4.200000e+000
      vertex   -2.727800e+001 6.423866e+001 4.200000e+000
      vertex   -2.734269e+001 6.443776e+001 4.200000e+000
    endloop
  endfacet
  facet normal -0.000000e+000 0.000000e+000 1.000000e+000
    outer loop
      vertex   -2.738622e+001 6.464253e+001 4.200000e+000
      vertex   -3.046831e+001 5.961423e+001 4.200000e+000
      vertex   -2.734269e+001 6.443776e+001 4.200000e+000
    endloop
  endfacet
  facet normal 0.000000e+000 0.000000e+000 1.000000e+000
    outer loop
      vertex   -2.738622e+001 6.464253e+001 4.200000e+000
      vertex   -2.740810e+001 6.485073e+001 4.200000e+000
      vertex   -3.046831e+001 5.961423e+001 4.200000e+000
    endloop
  endfacet
  facet normal 0.000000e+000 0.000000e+000 1.000000e+000
    outer loop
      vertex   -3.046831e+001 5.961423e+001 4.200000e+000
      vertex   -2.740810e+001 6.485073e+001 4.200000e+000
      vertex   -2.740810e+001 6.506007e+001 4.200000e+000
    endloop
  endfacet
  facet normal -0.000000e+000 0.000000e+000 1.000000e+000
    outer loop
      vertex   -3.046831e+001 7.041423e+001 4.200000e+000
      vertex   -2.740810e+001 6.506007e+001 4.200000e+000
      vertex   -2.738622e+001 6.526827e+001 4.200000e+000
    endloop
  endfacet
  facet normal 0.000000e+000 0.000000e+000 1.000000e+000
    outer loop
      vertex   -2.734269e+001 6.547304e+001 4.200000e+000
      vertex   -3.046831e+001 7.041423e+001 4.200000e+000
      vertex   -2.738622e+001 6.526827e+001 4.200000e+000
    endloop
  endfacet
  facet normal 0.000000e+000 -0.000000e+000 1.000000e+000
    outer loop
      vertex   -2.734269e+001 6.547304e+001 4.200000e+000
      vertex   -2.727800e+001 6.567213e+001 4.200000e+000
      vertex   -3.046831e+001 7.041423e+001 4.200000e+000
    endloop
  endfacet
  facet normal -0.000000e+000 0.000000e+000 1.000000e+000
    outer loop
      vertex   -3.046831e+001 7.041423e+001 4.200000e+000
      vertex   -2.727800e+001 6.567213e+001 4.200000e+000
      vertex   -2.719285e+001 6.586338e+001 4.200000e+000
    endloop
  endfacet
  facet normal 0.000000e+000 0.000000e+000 1.000000e+000
    outer loop
      vertex   -2.708818e+001 6.604468e+001 4.200000e+000
      vertex   -3.046831e+001 7.041423e+001 4.200000e+000
      vertex   -2.719285e+001 6.586338e+001 4.200000e+000
    endloop
  endfacet
  facet normal 0.000000e+000 -0.000000e+000 1.000000e+000
    outer loop
      vertex   -2.708818e+001 6.604468e+001 4.200000e+000
      vertex   -2.696513e+001 6.621404e+001 4.200000e+000
      vertex   -3.046831e+001 7.041423e+001 4.200000e+000
    endloop
  endfacet
  facet normal -0.000000e+000 0.000000e+000 1.000000e+000
    outer loop
      vertex   -3.046831e+001 7.041423e+001 4.200000e+000
      vertex   -2.696513e+001 6.621404e+001 4.200000e+000
      vertex   -2.682506e+001 6.636961e+001 4.200000e+000
    endloop
  endfacet
  facet normal 0.000000e+000 0.000000e+000 1.000000e+000
    outer loop
      vertex   -2.666948e+001 6.650969e+001 4.200000e+000
      vertex   -3.046831e+001 7.041423e+001 4.200000e+000
      vertex   -2.682506e+001 6.636961e+001 4.200000e+000
    endloop
  endfacet
  facet normal 0.000000e+000 -0.000000e+000 1.000000e+000
    outer loop
      vertex   -2.666948e+001 6.650969e+001 4.200000e+000
      vertex   -2.650012e+001 6.663274e+001 4.200000e+000
      vertex   -3.046831e+001 7.041423e+001 4.200000e+000
    endloop
  endfacet
  facet normal -0.000000e+000 0.000000e+000 1.000000e+000
    outer loop
      vertex   -3.046831e+001 7.041423e+001 4.200000e+000
      vertex   -2.650012e+001 6.663274e+001 4.200000e+000
      vertex   -2.631882e+001 6.673741e+001 4.200000e+000
    endloop
  endfacet
  facet normal 0.000000e+000 0.000000e+000 1.000000e+000
    outer loop
      vertex   -2.612758e+001 6.682256e+001 4.200000e+000
      vertex   -3.046831e+001 7.041423e+001 4.200000e+000
      vertex   -2.631882e+001 6.673741e+001 4.200000e+000
    endloop
  endfacet
  facet normal 0.000000e+000 -0.000000e+000 1.000000e+000
    outer loop
      vertex   -2.612758e+001 6.682256e+001 4.200000e+000
      vertex   -2.592848e+001 6.688725e+001 4.200000e+000
      vertex   -3.046831e+001 7.041423e+001 4.200000e+000
    endloop
  endfacet
  facet normal -0.000000e+000 0.000000e+000 1.000000e+000
    outer loop
      vertex   -3.046831e+001 7.041423e+001 4.200000e+000
      vertex   -2.592848e+001 6.688725e+001 4.200000e+000
      vertex   -2.572371e+001 6.693078e+001 4.200000e+000
    endloop
  endfacet
  facet normal 0.000000e+000 0.000000e+000 1.000000e+000
    outer loop
      vertex   -2.551551e+001 6.695266e+001 4.200000e+000
      vertex   -3.046831e+001 7.041423e+001 4.200000e+000
      vertex   -2.572371e+001 6.693078e+001 4.200000e+000
    endloop
  endfacet
  facet normal 0.000000e+000 -0.000000e+000 1.000000e+000
    outer loop
      vertex   -2.551551e+001 6.695266e+001 4.200000e+000
      vertex   -2.131045e+001 7.041423e+001 4.200000e+000
      vertex   -3.046831e+001 7.041423e+001 4.200000e+000
    endloop
  endfacet
  facet normal 0.000000e+000 0.000000e+000 1.000000e+000
    outer loop
      vertex   -2.551551e+001 6.695266e+001 4.200000e+000
      vertex   -2.530617e+001 6.695266e+001 4.200000e+000
      vertex   -2.131045e+001 7.041423e+001 4.200000e+000
    endloop
  endfacet
  facet normal 0.000000e+000 0.000000e+000 1.000000e+000
    outer loop
      vertex   -2.131045e+001 7.041423e+001 4.200000e+000
      vertex   -2.530617e+001 6.695266e+001 4.200000e+000
      vertex   -2.509797e+001 6.693078e+001 4.200000e+000
    endloop
  endfacet
  facet normal 0.000000e+000 -0.000000e+000 1.000000e+000
    outer loop
      vertex   -2.489320e+001 6.688725e+001 4.200000e+000
      vertex   -2.131045e+001 7.041423e+001 4.200000e+000
      vertex   -2.509797e+001 6.693078e+001 4.200000e+000
    endloop
  endfacet
  facet normal -0.000000e+000 0.000000e+000 1.000000e+000
    outer loop
      vertex   -2.489320e+001 6.688725e+001 4.200000e+000
      vertex   -2.469411e+001 6.682256e+001 4.200000e+000
      vertex   -2.131045e+001 7.041423e+001 4.200000e+000
    endloop
  endfacet
  facet normal 0.000000e+000 0.000000e+000 1.000000e+000
    outer loop
      vertex   -2.131045e+001 7.041423e+001 4.200000e+000
      vertex   -2.469411e+001 6.682256e+001 4.200000e+000
      vertex   -2.450286e+001 6.673741e+001 4.200000e+000
    endloop
  endfacet
  facet normal 0.000000e+000 -0.000000e+000 1.000000e+000
    outer loop
      vertex   -2.432156e+001 6.663274e+001 4.200000e+000
      vertex   -2.131045e+001 7.041423e+001 4.200000e+000
      vertex   -2.450286e+001 6.673741e+001 4.200000e+000
    endloop
  endfacet
  facet normal -0.000000e+000 0.000000e+000 1.000000e+000
    outer loop
      vertex   -2.432156e+001 6.663274e+001 4.200000e+000
      vertex   -2.415220e+001 6.650969e+001 4.200000e+000
      vertex   -2.131045e+001 7.041423e+001 4.200000e+000
    endloop
  endfacet
  facet normal 0.000000e+000 0.000000e+000 1.000000e+000
    outer loop
      vertex   -2.131045e+001 7.041423e+001 4.200000e+000
      vertex   -2.415220e+001 6.650969e+001 4.200000e+000
      vertex   -2.399663e+001 6.636961e+001 4.200000e+000
    endloop
  endfacet
  facet normal 0.000000e+000 0.000000e+000 1.000000e+000
    outer loop
      vertex   -1.956270e+001 6.651423e+001 4.200000e+000
      vertex   -2.399663e+001 6.636961e+001 4.200000e+000
      vertex   -2.385655e+001 6.621404e+001 4.200000e+000
    endloop
  endfacet
  facet normal 0.000000e+000 -0.000000e+000 1.000000e+000
    outer loop
      vertex   -2.373350e+001 6.604468e+001 4.200000e+000
      vertex   -1.956270e+001 6.651423e+001 4.200000e+000
      vertex   -2.385655e+001 6.621404e+001 4.200000e+000
    endloop
  endfacet
  facet normal -0.000000e+000 0.000000e+000 1.000000e+000
    outer loop
      vertex   -2.373350e+001 6.604468e+001 4.200000e+000
      vertex   -2.362883e+001 6.586338e+001 4.200000e+000
      vertex   -1.956270e+001 6.651423e+001 4.200000e+000
    endloop
  endfacet
  facet normal 0.000000e+000 0.000000e+000 1.000000e+000
    outer loop
      vertex   -1.956270e+001 6.651423e+001 4.200000e+000
      vertex   -2.362883e+001 6.586338e+001 4.200000e+000
      vertex   -2.354368e+001 6.567213e+001 4.200000e+000
    endloop
  endfacet
  facet normal 0.000000e+000 -0.000000e+000 1.000000e+000
    outer loop
      vertex   -2.347899e+001 6.547304e+001 4.200000e+000
      vertex   -1.956270e+001 6.651423e+001 4.200000e+000
      vertex   -2.354368e+001 6.567213e+001 4.200000e+000
    endloop
  endfacet
  facet normal -0.000000e+000 0.000000e+000 1.000000e+000
    outer loop
      vertex   -2.347899e+001 6.547304e+001 4.200000e+000
      vertex   -2.343546e+001 6.526827e+001 4.200000e+000
      vertex   -1.956270e+001 6.651423e+001 4.200000e+000
    endloop
  endfacet
  facet normal 0.000000e+000 0.000000e+000 1.000000e+000
    outer loop
      vertex   -1.956270e+001 6.651423e+001 4.200000e+000
      vertex   -2.343546e+001 6.526827e+001 4.200000e+000
      vertex   -2.341358e+001 6.506007e+001 4.200000e+000
    endloop
  endfacet
  facet normal 0.000000e+000 0.000000e+000 1.000000e+000
    outer loop
      vertex   -1.956270e+001 6.351423e+001 4.200000e+000
      vertex   -2.341358e+001 6.506007e+001 4.200000e+000
      vertex   -2.341358e+001 6.485073e+001 4.200000e+000
    endloop
  endfacet
  facet normal -0.000000e+000 -0.000000e+000 1.000000e+000
    outer loop
      vertex   -2.343546e+001 6.464253e+001 4.200000e+000
      vertex   -1.956270e+001 6.351423e+001 4.200000e+000
      vertex   -2.341358e+001 6.485073e+001 4.200000e+000
    endloop
  endfacet
  facet normal 0.000000e+000 0.000000e+000 1.000000e+000
    outer loop
      vertex   -2.343546e+001 6.464253e+001 4.200000e+000
      vertex   -2.347899e+001 6.443776e+001 4.200000e+000
      vertex   -1.956270e+001 6.351423e+001 4.200000e+000
    endloop
  endfacet
  facet normal 0.000000e+000 0.000000e+000 1.000000e+000
    outer loop
      vertex   -1.956270e+001 6.351423e+001 4.200000e+000
      vertex   -2.347899e+001 6.443776e+001 4.200000e+000
      vertex   -2.354368e+001 6.423866e+001 4.200000e+000
    endloop
  endfacet
  facet normal -0.000000e+000 -0.000000e+000 1.000000e+000
    outer loop
      vertex   -2.362883e+001 6.404742e+001 4.200000e+000
      vertex   -1.956270e+001 6.351423e+001 4.200000e+000
      vertex   -2.354368e+001 6.423866e+001 4.200000e+000
    endloop
  endfacet
  facet normal 0.000000e+000 0.000000e+000 1.000000e+000
    outer loop
      vertex   -2.362883e+001 6.404742e+001 4.200000e+000
      vertex   -2.373350e+001 6.386612e+001 4.200000e+000
      vertex   -1.956270e+001 6.351423e+001 4.200000e+000
    endloop
  endfacet
  facet normal 0.000000e+000 0.000000e+000 1.000000e+000
    outer loop
      vertex   -1.956270e+001 6.351423e+001 4.200000e+000
      vertex   -2.373350e+001 6.386612e+001 4.200000e+000
      vertex   -2.385655e+001 6.369676e+001 4.200000e+000
    endloop
  endfacet
  facet normal -0.000000e+000 -0.000000e+000 1.000000e+000
    outer loop
      vertex   -2.399663e+001 6.354119e+001 4.200000e+000
      vertex   -1.956270e+001 6.351423e+001 4.200000e+000
      vertex   -2.385655e+001 6.369676e+001 4.200000e+000
    endloop
  endfacet
  facet normal -0.000000e+000 0.000000e+000 1.000000e+000
    outer loop
      vertex   -2.399663e+001 6.354119e+001 4.200000e+000
      vertex   -2.141045e+001 5.961423e+001 4.200000e+000
      vertex   -1.956270e+001 6.351423e+001 4.200000e+000
    endloop
  endfacet
  facet normal 0.000000e+000 0.000000e+000 1.000000e+000
    outer loop
      vertex   -2.399663e+001 6.354119e+001 4.200000e+000
      vertex   -2.415220e+001 6.340111e+001 4.200000e+000
      vertex   -2.141045e+001 5.961423e+001 4.200000e+000
    endloop
  endfacet
  facet normal 0.000000e+000 0.000000e+000 1.000000e+000
    outer loop
      vertex   -2.141045e+001 5.961423e+001 4.200000e+000
      vertex   -2.415220e+001 6.340111e+001 4.200000e+000
      vertex   -2.432156e+001 6.327806e+001 4.200000e+000
    endloop
  endfacet
  facet normal -0.000000e+000 -0.000000e+000 1.000000e+000
    outer loop
      vertex   -2.450286e+001 6.317339e+001 4.200000e+000
      vertex   -2.141045e+001 5.961423e+001 4.200000e+000
      vertex   -2.432156e+001 6.327806e+001 4.200000e+000
    endloop
  endfacet
  facet normal 0.000000e+000 0.000000e+000 1.000000e+000
    outer loop
      vertex   -2.450286e+001 6.317339e+001 4.200000e+000
      vertex   -2.469411e+001 6.308824e+001 4.200000e+000
      vertex   -2.141045e+001 5.961423e+001 4.200000e+000
    endloop
  endfacet
  facet normal 0.000000e+000 0.000000e+000 1.000000e+000
    outer loop
      vertex   -2.141045e+001 5.961423e+001 4.200000e+000
      vertex   -2.469411e+001 6.308824e+001 4.200000e+000
      vertex   -2.489320e+001 6.302355e+001 4.200000e+000
    endloop
  endfacet
  facet normal -0.000000e+000 -0.000000e+000 1.000000e+000
    outer loop
      vertex   -2.509797e+001 6.298002e+001 4.200000e+000
      vertex   -2.141045e+001 5.961423e+001 4.200000e+000
      vertex   -2.489320e+001 6.302355e+001 4.200000e+000
    endloop
  endfacet
  facet normal 0.000000e+000 0.000000e+000 1.000000e+000
    outer loop
      vertex   -2.509797e+001 6.298002e+001 4.200000e+000
      vertex   -2.530617e+001 6.295814e+001 4.200000e+000
      vertex   -2.141045e+001 5.961423e+001 4.200000e+000
    endloop
  endfacet
  facet normal 0.000000e+000 0.000000e+000 1.000000e+000
    outer loop
      vertex   -2.141045e+001 5.961423e+001 4.200000e+000
      vertex   -2.530617e+001 6.295814e+001 4.200000e+000
      vertex   -2.551551e+001 6.295814e+001 4.200000e+000
    endloop
  endfacet
  facet normal 0.000000e+000 -0.000000e+000 1.000000e+000
    outer loop
      vertex   -3.046831e+001 5.961423e+001 4.200000e+000
      vertex   -2.551551e+001 6.295814e+001 4.200000e+000
      vertex   -2.572371e+001 6.298002e+001 4.200000e+000
    endloop
  endfacet
  facet normal -0.000000e+000 0.000000e+000 1.000000e+000
    outer loop
      vertex   -2.592848e+001 6.302355e+001 4.200000e+000
      vertex   -3.046831e+001 5.961423e+001 4.200000e+000
      vertex   -2.572371e+001 6.298002e+001 4.200000e+000
    endloop
  endfacet
  facet normal 0.000000e+000 0.000000e+000 1.000000e+000
    outer loop
      vertex   -2.592848e+001 6.302355e+001 4.200000e+000
      vertex   -2.612758e+001 6.308824e+001 4.200000e+000
      vertex   -3.046831e+001 5.961423e+001 4.200000e+000
    endloop
  endfacet
  facet normal 0.000000e+000 -0.000000e+000 1.000000e+000
    outer loop
      vertex   -3.046831e+001 5.961423e+001 4.200000e+000
      vertex   -2.612758e+001 6.308824e+001 4.200000e+000
      vertex   -2.631882e+001 6.317339e+001 4.200000e+000
    endloop
  endfacet
  facet normal 0.000000e+000 -0.000000e+000 1.000000e+000
    outer loop
      vertex   -3.046831e+001 5.961423e+001 4.200000e+000
      vertex   -2.740810e+001 6.506007e+001 4.200000e+000
      vertex   -3.046831e+001 7.041423e+001 4.200000e+000
    endloop
  endfacet
  facet normal -0.000000e+000 0.000000e+000 1.000000e+000
    outer loop
      vertex   -2.131045e+001 7.041423e+001 4.200000e+000
      vertex   -2.399663e+001 6.636961e+001 4.200000e+000
      vertex   -1.956270e+001 6.651423e+001 4.200000e+000
    endloop
  endfacet
  facet normal -0.000000e+000 0.000000e+000 1.000000e+000
    outer loop
      vertex   -1.746831e+001 6.707209e+001 4.200000e+000
      vertex   -1.956270e+001 6.651423e+001 4.200000e+000
      vertex   -1.746831e+001 6.651423e+001 4.200000e+000
    endloop
  endfacet
  facet normal 0.000000e+000 0.000000e+000 1.000000e+000
    outer loop
      vertex   -1.746831e+001 6.707209e+001 4.200000e+000
      vertex   -2.131045e+001 7.041423e+001 4.200000e+000
      vertex   -1.956270e+001 6.651423e+001 4.200000e+000
    endloop
  endfacet
  facet normal 0.000000e+000 0.000000e+000 1.000000e+000
    outer loop
      vertex   -1.956270e+001 6.651423e+001 4.200000e+000
      vertex   -2.341358e+001 6.506007e+001 4.200000e+000
      vertex   -1.956270e+001 6.351423e+001 4.200000e+000
    endloop
  endfacet
  facet normal 0.000000e+000 0.000000e+000 1.000000e+000
    outer loop
      vertex   -2.141045e+001 5.961423e+001 4.200000e+000
      vertex   -2.551551e+001 6.295814e+001 4.200000e+000
      vertex   -3.046831e+001 5.961423e+001 4.200000e+000
    endloop
  endfacet
  facet normal 0.000000e+000 -0.000000e+000 1.000000e+000
    outer loop
      vertex   -2.141045e+001 5.961423e+001 4.200000e+000
      vertex   -1.746831e+001 6.305637e+001 4.200000e+000
      vertex   -1.956270e+001 6.351423e+001 4.200000e+000
    endloop
  endfacet
  facet normal -0.000000e+000 0.000000e+000 1.000000e+000
    outer loop
      vertex   -1.956270e+001 6.351423e+001 4.200000e+000
      vertex   -1.746831e+001 6.305637e+001 4.200000e+000
      vertex   -1.746831e+001 6.351423e+001 4.200000e+000
    endloop
  endfacet
  facet normal 0.000000e+000 1.000000e+000 3.643809e-015
    outer loop
      vertex   -2.429942e+001 7.301423e+001 7.800000e+000
      vertex   -2.429942e+001 7.301423e+001 2.220446e-015
      vertex   -3.046831e+001 7.301423e+001 7.800000e+000
    endloop
  endfacet
  facet normal 2.303632e-015 1.000000e+000 5.465713e-015
    outer loop
      vertex   -3.046831e+001 7.301423e+001 7.800000e+000
      vertex   -2.429942e+001 7.301423e+001 2.220446e-015
      vertex   -3.046831e+001 7.301423e+001 2.220446e-015
    endloop
  endfacet
  facet normal -2.337238e-015 -1.000000e+000 1.064556e-030
    outer loop
      vertex   -2.438812e+001 5.701423e+001 2.220446e-015
      vertex   -2.438812e+001 5.701423e+001 7.800000e+000
      vertex   -3.046831e+001 5.701423e+001 2.220446e-015
    endloop
  endfacet
  facet normal -0.000000e+000 -1.000000e+000 -1.821904e-015
    outer loop
      vertex   -3.046831e+001 5.701423e+001 2.220446e-015
      vertex   -2.438812e+001 5.701423e+001 7.800000e+000
      vertex   -3.046831e+001 5.701423e+001 7.800000e+000
    endloop
  endfacet
  facet normal 1.000000e+000 3.184209e-014 4.229421e-015
    outer loop
      vertex   -1.746831e+001 6.707209e+001 4.200000e+000
      vertex   -1.746831e+001 6.651423e+001 4.200000e+000
      vertex   -1.746831e+001 6.707209e+001 2.220446e-015
    endloop
  endfacet
  facet normal 1.000000e+000 -4.423498e-015 -5.875505e-016
    outer loop
      vertex   -1.746831e+001 6.707209e+001 2.220446e-015
      vertex   -1.746831e+001 6.651423e+001 4.200000e+000
      vertex   -1.746831e+001 6.305637e+001 2.220446e-015
    endloop
  endfacet
  facet normal 1.000000e+000 -5.921189e-015 6.455004e-016
    outer loop
      vertex   -1.746831e+001 6.305637e+001 2.220446e-015
      vertex   -1.746831e+001 6.651423e+001 4.200000e+000
      vertex   -1.746831e+001 6.351423e+001 4.200000e+000
    endloop
  endfacet
  facet normal 1.000000e+000 -0.000000e+000 0.000000e+000
    outer loop
      vertex   -1.746831e+001 6.305637e+001 4.200000e+000
      vertex   -1.746831e+001 6.305637e+001 2.220446e-015
      vertex   -1.746831e+001 6.351423e+001 4.200000e+000
    endloop
  endfacet
  facet normal 1.000000e+000 -5.921189e-015 4.934325e-015
    outer loop
      vertex   -1.746831e+001 6.651423e+001 4.200000e+000
      vertex   -1.746831e+001 6.651423e+001 7.800000e+000
      vertex   -1.746831e+001 6.351423e+001 4.200000e+000
    endloop
  endfacet
  facet normal 1.000000e+000 0.000000e+000 -0.000000e+000
    outer loop
      vertex   -1.746831e+001 6.351423e+001 4.200000e+000
      vertex   -1.746831e+001 6.651423e+001 7.800000e+000
      vertex   -1.746831e+001 6.351423e+001 7.800000e+000
    endloop
  endfacet
  facet normal -0.000000e+000 1.000000e+000 0.000000e+000
    outer loop
      vertex   -3.046831e+001 5.961423e+001 4.200000e+000
      vertex   -3.046831e+001 5.961423e+001 7.800000e+000
      vertex   -2.141045e+001 5.961423e+001 4.200000e+000
    endloop
  endfacet
  facet normal 0.000000e+000 1.000000e+000 -0.000000e+000
    outer loop
      vertex   -2.141045e+001 5.961423e+001 4.200000e+000
      vertex   -3.046831e+001 5.961423e+001 7.800000e+000
      vertex   -2.141045e+001 5.961423e+001 7.800000e+000
    endloop
  endfacet
  facet normal 6.577215e-001 -7.532612e-001 1.997176e-015
    outer loop
      vertex   -2.141045e+001 5.961423e+001 7.800000e+000
      vertex   -2.438812e+001 5.701423e+001 7.800000e+000
      vertex   -2.141045e+001 5.961423e+001 4.200000e+000
    endloop
  endfacet
  facet normal 6.577215e-001 -7.532612e-001 -2.995764e-016
    outer loop
      vertex   -2.141045e+001 5.961423e+001 4.200000e+000
      vertex   -2.438812e+001 5.701423e+001 7.800000e+000
      vertex   -2.438812e+001 5.701423e+001 2.220446e-015
    endloop
  endfacet
  facet normal 6.577215e-001 -7.532612e-001 -3.867335e-015
    outer loop
      vertex   -1.746831e+001 6.305637e+001 2.220446e-015
      vertex   -2.141045e+001 5.961423e+001 4.200000e+000
      vertex   -2.438812e+001 5.701423e+001 2.220446e-015
    endloop
  endfacet
  facet normal 6.577215e-001 -7.532612e-001 -5.097374e-015
    outer loop
      vertex   -1.746831e+001 6.305637e+001 2.220446e-015
      vertex   -1.746831e+001 6.305637e+001 4.200000e+000
      vertex   -2.141045e+001 5.961423e+001 4.200000e+000
    endloop
  endfacet
  facet normal -1.000000e+000 -1.110223e-015 6.872809e-016
    outer loop
      vertex   -3.046831e+001 7.301423e+001 2.220446e-015
      vertex   -3.046831e+001 5.701423e+001 2.220446e-015
      vertex   -3.046831e+001 5.961423e+001 4.200000e+000
    endloop
  endfacet
  facet normal -1.000000e+000 0.000000e+000 4.229421e-015
    outer loop
      vertex   -3.046831e+001 7.041423e+001 4.200000e+000
      vertex   -3.046831e+001 7.301423e+001 2.220446e-015
      vertex   -3.046831e+001 5.961423e+001 4.200000e+000
    endloop
  endfacet
  facet normal -1.000000e+000 -3.889065e-015 1.821904e-015
    outer loop
      vertex   -3.046831e+001 7.041423e+001 4.200000e+000
      vertex   -3.046831e+001 7.301423e+001 7.800000e+000
      vertex   -3.046831e+001 7.301423e+001 2.220446e-015
    endloop
  endfacet
  facet normal -1.000000e+000 -1.366428e-015 0.000000e+000
    outer loop
      vertex   -3.046831e+001 7.041423e+001 4.200000e+000
      vertex   -3.046831e+001 7.041423e+001 7.800000e+000
      vertex   -3.046831e+001 7.301423e+001 7.800000e+000
    endloop
  endfacet
  facet normal -1.000000e+000 -0.000000e+000 -0.000000e+000
    outer loop
      vertex   -3.046831e+001 5.961423e+001 7.800000e+000
      vertex   -3.046831e+001 5.961423e+001 4.200000e+000
      vertex   -3.046831e+001 5.701423e+001 7.800000e+000
    endloop
  endfacet
  facet normal -1.000000e+000 0.000000e+000 -0.000000e+000
    outer loop
      vertex   -3.046831e+001 5.701423e+001 7.800000e+000
      vertex   -3.046831e+001 5.961423e+001 4.200000e+000
      vertex   -3.046831e+001 5.701423e+001 2.220446e-015
    endloop
  endfacet
  facet normal -0.000000e+000 -1.000000e+000 0.000000e+000
    outer loop
      vertex   -2.131045e+001 7.041423e+001 4.200000e+000
      vertex   -2.131045e+001 7.041423e+001 7.800000e+000
      vertex   -3.046831e+001 7.041423e+001 4.200000e+000
    endloop
  endfacet
  facet normal 0.000000e+000 -1.000000e+000 0.000000e+000
    outer loop
      vertex   -3.046831e+001 7.041423e+001 4.200000e+000
      vertex   -2.131045e+001 7.041423e+001 7.800000e+000
      vertex   -3.046831e+001 7.041423e+001 7.800000e+000
    endloop
  endfacet
  facet normal 6.563071e-001 7.544939e-001 2.615974e-015
    outer loop
      vertex   -1.746831e+001 6.707209e+001 2.220446e-015
      vertex   -2.429942e+001 7.301423e+001 2.220446e-015
      vertex   -2.131045e+001 7.041423e+001 4.200000e+000
    endloop
  endfacet
  facet normal 6.563071e-001 7.544939e-001 2.229412e-016
    outer loop
      vertex   -1.746831e+001 6.707209e+001 4.200000e+000
      vertex   -1.746831e+001 6.707209e+001 2.220446e-015
      vertex   -2.131045e+001 7.041423e+001 4.200000e+000
    endloop
  endfacet
  facet normal 6.563071e-001 7.544939e-001 0.000000e+000
    outer loop
      vertex   -2.131045e+001 7.041423e+001 7.800000e+000
      vertex   -2.131045e+001 7.041423e+001 4.200000e+000
      vertex   -2.429942e+001 7.301423e+001 7.800000e+000
    endloop
  endfacet
  facet normal 6.563071e-001 7.544939e-001 -2.299478e-016
    outer loop
      vertex   -2.429942e+001 7.301423e+001 7.800000e+000
      vertex   -2.131045e+001 7.041423e+001 4.200000e+000
      vertex   -2.429942e+001 7.301423e+001 2.220446e-015
    endloop
  endfacet
  facet normal -0.000000e+000 1.000000e+000 0.000000e+000
    outer loop
      vertex   -1.956270e+001 6.651423e+001 7.800000e+000
      vertex   -1.746831e+001 6.651423e+001 7.800000e+000
      vertex   -1.956270e+001 6.651423e+001 4.200000e+000
    endloop
  endfacet
  facet normal -6.785219e-015 1.000000e+000 3.947460e-015
    outer loop
      vertex   -1.956270e+001 6.651423e+001 4.200000e+000
      vertex   -1.746831e+001 6.651423e+001 7.800000e+000
      vertex   -1.746831e+001 6.651423e+001 4.200000e+000
    endloop
  endfacet
  facet normal 0.000000e+000 -0.000000e+000 -1.000000e+000
    outer loop
      vertex   -2.382313e+001 6.770540e+001 2.220446e-015
      vertex   -1.746831e+001 6.707209e+001 2.220446e-015
      vertex   -2.223542e+001 6.495540e+001 2.220446e-015
    endloop
  endfacet
  facet normal 0.000000e+000 0.000000e+000 -1.000000e+000
    outer loop
      vertex   -2.382313e+001 6.770540e+001 2.220446e-015
      vertex   -2.429942e+001 7.301423e+001 2.220446e-015
      vertex   -1.746831e+001 6.707209e+001 2.220446e-015
    endloop
  endfacet
  facet normal 0.000000e+000 0.000000e+000 -1.000000e+000
    outer loop
      vertex   -2.382313e+001 6.770540e+001 2.220446e-015
      vertex   -2.699855e+001 6.770540e+001 2.220446e-015
      vertex   -2.429942e+001 7.301423e+001 2.220446e-015
    endloop
  endfacet
  facet normal -0.000000e+000 0.000000e+000 -1.000000e+000
    outer loop
      vertex   -2.429942e+001 7.301423e+001 2.220446e-015
      vertex   -2.699855e+001 6.770540e+001 2.220446e-015
      vertex   -3.046831e+001 7.301423e+001 2.220446e-015
    endloop
  endfacet
  facet normal 0.000000e+000 -0.000000e+000 -1.000000e+000
    outer loop
      vertex   -3.046831e+001 7.301423e+001 2.220446e-015
      vertex   -2.699855e+001 6.770540e+001 2.220446e-015
      vertex   -2.874615e+001 6.514221e+001 2.220446e-015
    endloop
  endfacet
  facet normal 0.000000e+000 0.000000e+000 -1.000000e+000
    outer loop
      vertex   -2.898318e+001 6.473165e+001 2.220446e-015
      vertex   -3.046831e+001 7.301423e+001 2.220446e-015
      vertex   -2.874615e+001 6.514221e+001 2.220446e-015
    endloop
  endfacet
  facet normal -0.000000e+000 0.000000e+000 -1.000000e+000
    outer loop
      vertex   -2.898318e+001 6.473165e+001 2.220446e-015
      vertex   -3.046831e+001 5.701423e+001 2.220446e-015
      vertex   -3.046831e+001 7.301423e+001 2.220446e-015
    endloop
  endfacet
  facet normal 0.000000e+000 -0.000000e+000 -1.000000e+000
    outer loop
      vertex   -2.898318e+001 6.473165e+001 2.220446e-015
      vertex   -2.874615e+001 6.432110e+001 2.220446e-015
      vertex   -3.046831e+001 5.701423e+001 2.220446e-015
    endloop
  endfacet
  facet normal 0.000000e+000 0.000000e+000 -1.000000e+000
    outer loop
      vertex   -3.046831e+001 5.701423e+001 2.220446e-015
      vertex   -2.874615e+001 6.432110e+001 2.220446e-015
      vertex   -2.699855e+001 6.220540e+001 2.220446e-015
    endloop
  endfacet
  facet normal 0.000000e+000 0.000000e+000 -1.000000e+000
    outer loop
      vertex   -2.438812e+001 5.701423e+001 2.220446e-015
      vertex   -2.699855e+001 6.220540e+001 2.220446e-015
      vertex   -2.382313e+001 6.220540e+001 2.220446e-015
    endloop
  endfacet
  facet normal -0.000000e+000 0.000000e+000 -1.000000e+000
    outer loop
      vertex   -1.746831e+001 6.305637e+001 2.220446e-015
      vertex   -2.382313e+001 6.220540e+001 2.220446e-015
      vertex   -2.223542e+001 6.495540e+001 2.220446e-015
    endloop
  endfacet
  facet normal -0.000000e+000 0.000000e+000 -1.000000e+000
    outer loop
      vertex   -1.746831e+001 6.707209e+001 2.220446e-015
      vertex   -1.746831e+001 6.305637e+001 2.220446e-015
      vertex   -2.223542e+001 6.495540e+001 2.220446e-015
    endloop
  endfacet
  facet normal -0.000000e+000 0.000000e+000 -1.000000e+000
    outer loop
      vertex   -2.699855e+001 6.770540e+001 2.220446e-015
      vertex   -2.858627e+001 6.495540e+001 2.220446e-015
      vertex   -2.874615e+001 6.514221e+001 2.220446e-015
    endloop
  endfacet
  facet normal 0.000000e+000 -0.000000e+000 -1.000000e+000
    outer loop
      vertex   -2.874615e+001 6.514221e+001 2.220446e-015
      vertex   -2.858627e+001 6.495540e+001 2.220446e-015
      vertex   -2.874615e+001 6.432110e+001 2.220446e-015
    endloop
  endfacet
  facet normal 0.000000e+000 0.000000e+000 -1.000000e+000
    outer loop
      vertex   -2.874615e+001 6.432110e+001 2.220446e-015
      vertex   -2.858627e+001 6.495540e+001 2.220446e-015
      vertex   -2.699855e+001 6.220540e+001 2.220446e-015
    endloop
  endfacet
  facet normal 0.000000e+000 0.000000e+000 -1.000000e+000
    outer loop
      vertex   -3.046831e+001 5.701423e+001 2.220446e-015
      vertex   -2.699855e+001 6.220540e+001 2.220446e-015
      vertex   -2.438812e+001 5.701423e+001 2.220446e-015
    endloop
  endfacet
  facet normal 0.000000e+000 0.000000e+000 -1.000000e+000
    outer loop
      vertex   -2.438812e+001 5.701423e+001 2.220446e-015
      vertex   -2.382313e+001 6.220540e+001 2.220446e-015
      vertex   -1.746831e+001 6.305637e+001 2.220446e-015
    endloop
  endfacet
  facet normal 0.000000e+000 0.000000e+000 1.000000e+000
    outer loop
      vertex   -2.131045e+001 7.041423e+001 7.800000e+000
      vertex   -2.429942e+001 7.301423e+001 7.800000e+000
      vertex   -3.046831e+001 7.041423e+001 7.800000e+000
    endloop
  endfacet
  facet normal 0.000000e+000 -0.000000e+000 1.000000e+000
    outer loop
      vertex   -3.046831e+001 7.041423e+001 7.800000e+000
      vertex   -2.429942e+001 7.301423e+001 7.800000e+000
      vertex   -3.046831e+001 7.301423e+001 7.800000e+000
    endloop
  endfacet
  facet normal 0.000000e+000 0.000000e+000 1.000000e+000
    outer loop
      vertex   -2.141045e+001 5.961423e+001 7.800000e+000
      vertex   -3.046831e+001 5.961423e+001 7.800000e+000
      vertex   -2.438812e+001 5.701423e+001 7.800000e+000
    endloop
  endfacet
  facet normal 0.000000e+000 0.000000e+000 1.000000e+000
    outer loop
      vertex   -2.438812e+001 5.701423e+001 7.800000e+000
      vertex   -3.046831e+001 5.961423e+001 7.800000e+000
      vertex   -3.046831e+001 5.701423e+001 7.800000e+000
    endloop
  endfacet
  facet normal -0.000000e+000 2.960595e-016 1.000000e+000
    outer loop
      vertex   -1.956270e+001 6.351423e+001 7.800000e+000
      vertex   -1.746831e+001 6.351423e+001 7.800000e+000
      vertex   -1.956270e+001 6.651423e+001 7.800000e+000
    endloop
  endfacet
  facet normal -4.240762e-016 0.000000e+000 1.000000e+000
    outer loop
      vertex   -1.956270e+001 6.651423e+001 7.800000e+000
      vertex   -1.746831e+001 6.351423e+001 7.800000e+000
      vertex   -1.746831e+001 6.651423e+001 7.800000e+000
    endloop
  endfacet
  facet normal -1.000000e+000 0.000000e+000 0.000000e+000
    outer loop
      vertex   -2.874615e+001 6.432110e+001 2.220446e-015
      vertex   -2.874615e+001 6.432110e+001 2.100000e+000
      vertex   -2.874615e+001 6.514221e+001 2.220446e-015
    endloop
  endfacet
  facet normal -1.000000e+000 0.000000e+000 0.000000e+000
    outer loop
      vertex   -2.874615e+001 6.514221e+001 2.220446e-015
      vertex   -2.874615e+001 6.432110e+001 2.100000e+000
      vertex   -2.874615e+001 6.514221e+001 2.100000e+000
    endloop
  endfacet
endsolid
